<?xml version="1.0" standalone="no"?>
<!DOCTYPE svg PUBLIC "-//W3C//DTD SVG 20010904//EN"
 "http://www.w3.org/TR/2001/REC-SVG-20010904/DTD/svg10.dtd">
<svg version="1.0" xmlns="http://www.w3.org/2000/svg"
 width="1044.000000pt" height="1042.000000pt" viewBox="0 0 1044.000000 1042.000000"
 preserveAspectRatio="xMidYMid meet">

<g transform="translate(0.000000,1042.000000) scale(0.100000,-0.100000)"
fill="#000000" stroke="none">
<path d="M5076 10143 c-4 -4 -80 -11 -169 -15 -89 -4 -196 -11 -237 -17 -69
-10 -185 -25 -253 -34 -15 -2 -33 -10 -40 -16 -10 -11 -6 -12 20 -6 17 3 69
11 115 16 45 6 117 15 158 20 234 30 680 39 920 20 286 -23 421 -42 620 -88
36 -8 90 -18 120 -22 30 -4 111 -25 180 -45 69 -21 149 -44 179 -52 30 -8 60
-18 65 -23 6 -4 34 -14 61 -20 60 -15 153 -50 255 -97 42 -19 79 -34 83 -34 3
0 35 -13 69 -29 35 -15 98 -43 140 -61 43 -17 95 -43 115 -57 21 -14 81 -48
133 -76 196 -103 465 -274 540 -342 19 -18 64 -52 100 -75 70 -46 102 -74 278
-233 145 -131 234 -219 349 -349 160 -179 189 -212 208 -243 10 -16 34 -48 53
-70 47 -55 158 -210 189 -265 14 -25 48 -77 74 -117 27 -39 49 -74 49 -78 0
-3 13 -26 29 -49 25 -36 106 -197 295 -586 20 -41 36 -82 36 -91 0 -8 8 -33
19 -55 10 -21 40 -106 66 -189 26 -82 55 -172 66 -200 10 -27 21 -66 25 -85 3
-19 24 -109 45 -199 22 -90 45 -198 50 -240 6 -42 15 -101 20 -131 25 -145 32
-294 32 -720 0 -292 -4 -487 -12 -545 -6 -49 -15 -121 -20 -160 -7 -61 -45
-253 -73 -370 -5 -22 -13 -60 -18 -85 -26 -137 -184 -610 -241 -722 -11 -22
-29 -67 -40 -100 -10 -34 -27 -75 -37 -92 -11 -17 -25 -47 -32 -66 -7 -19 -19
-42 -26 -50 -7 -8 -37 -60 -67 -115 -30 -55 -69 -127 -87 -160 -18 -33 -57
-97 -86 -142 -30 -46 -54 -87 -54 -93 0 -5 -15 -27 -33 -47 -18 -21 -54 -69
-80 -108 -64 -94 -90 -129 -129 -175 -18 -21 -55 -66 -83 -101 -61 -78 -502
-519 -611 -611 -43 -37 -99 -85 -123 -105 -68 -58 -397 -283 -510 -348 -29
-16 -69 -41 -89 -54 -44 -29 -407 -211 -442 -222 -14 -4 -63 -24 -110 -45
-105 -46 -332 -129 -424 -155 -38 -11 -76 -24 -85 -29 -26 -13 -283 -76 -456
-111 -257 -52 -408 -67 -805 -79 -162 -5 -308 -10 -325 -11 -16 -1 -79 4 -140
10 -60 6 -153 16 -205 21 -87 9 -151 17 -270 35 -155 23 -580 130 -760 193
-211 73 -265 93 -325 121 -33 16 -76 34 -95 42 -70 27 -418 207 -520 269 -267
162 -463 300 -623 441 -29 25 -68 56 -87 69 -51 35 -436 417 -478 475 -20 28
-56 73 -81 101 -25 28 -66 77 -91 108 -25 32 -55 70 -67 85 -32 40 -233 341
-233 349 0 4 -16 31 -35 59 -19 29 -35 55 -35 58 0 4 -13 25 -29 48 -32 47
-220 419 -253 500 -85 213 -216 594 -228 662 -4 28 -20 97 -35 155 -33 133
-43 179 -55 260 -6 36 -15 94 -21 130 -6 36 -14 112 -18 170 l-8 105 -3 -75
c-5 -90 -4 -115 9 -200 6 -36 15 -92 20 -125 5 -33 14 -78 21 -100 6 -22 12
-52 14 -66 1 -14 6 -31 10 -38 5 -7 10 -27 11 -44 2 -18 9 -52 15 -77 6 -25
15 -67 19 -95 4 -27 17 -75 28 -105 11 -30 35 -100 52 -155 18 -55 43 -125 56
-155 12 -30 29 -75 36 -100 7 -25 23 -66 36 -91 13 -26 23 -52 23 -58 0 -15
231 -471 277 -548 81 -133 100 -163 191 -303 52 -80 107 -159 121 -177 14 -17
46 -57 71 -88 25 -31 71 -85 103 -120 31 -36 57 -68 57 -73 0 -12 471 -480
505 -501 17 -10 44 -33 60 -51 17 -18 46 -43 65 -56 19 -13 60 -45 90 -69 61
-50 345 -242 400 -270 19 -10 48 -28 63 -41 16 -13 33 -24 38 -24 6 0 29 -13
52 -29 54 -37 462 -241 482 -241 9 0 46 -16 83 -34 37 -19 87 -40 112 -47 25
-7 61 -20 80 -29 71 -34 285 -100 345 -106 11 -1 56 -14 100 -29 118 -40 139
-45 170 -45 16 0 42 -4 59 -9 102 -30 146 -41 186 -46 240 -30 368 -43 475
-48 44 -2 99 -10 123 -17 37 -12 47 -12 75 0 25 12 92 16 302 18 387 5 653 30
785 72 19 6 49 13 65 15 77 10 146 24 245 50 39 10 250 74 300 92 25 8 83 29
130 45 47 16 119 44 160 63 41 18 113 48 160 66 105 41 423 198 469 233 19 14
40 26 47 26 7 0 25 11 41 24 15 13 43 31 61 40 31 16 231 147 292 191 15 11
50 35 76 54 49 34 76 56 212 173 98 84 556 541 610 609 23 30 62 77 85 105 23
28 60 77 82 108 37 54 55 79 120 166 35 47 117 181 156 255 18 33 42 74 55 90
13 17 37 61 55 99 18 38 47 91 66 118 18 28 36 62 40 77 3 14 14 36 24 49 9
12 25 48 34 80 9 31 24 73 32 92 79 175 208 541 200 564 -2 6 2 24 11 40 19
39 32 80 43 136 4 25 13 68 19 95 7 28 13 69 15 91 2 23 8 50 14 61 12 24 29
107 42 213 5 41 14 113 20 160 14 109 15 981 1 1115 -6 55 -15 127 -21 160 -5
33 -14 97 -20 142 -5 46 -13 88 -17 95 -4 7 -11 30 -15 53 -5 22 -12 58 -18
80 -27 109 -33 134 -40 180 -4 28 -16 66 -26 85 -10 19 -22 53 -26 75 -4 22
-33 112 -64 200 -31 88 -60 176 -64 197 -5 20 -22 58 -40 84 -17 26 -31 53
-31 61 0 15 -233 478 -284 565 -55 92 -180 282 -264 400 -51 72 -83 112 -153
191 -25 29 -56 68 -69 87 -70 104 -482 514 -575 573 -22 13 -53 39 -70 57 -16
18 -59 51 -95 75 -36 24 -72 51 -80 60 -8 10 -89 66 -180 126 -241 157 -265
172 -370 224 -52 26 -102 53 -110 60 -20 17 -177 95 -192 95 -6 0 -43 15 -82
34 -39 19 -111 50 -161 71 -49 20 -106 43 -125 51 -59 27 -121 45 -133 41 -7
-2 -38 9 -69 24 -32 16 -65 29 -75 29 -10 0 -43 9 -73 20 -30 11 -64 20 -75
20 -11 0 -45 10 -75 21 -30 12 -80 25 -110 30 -30 4 -77 13 -105 20 -27 6 -68
12 -91 14 -22 1 -49 7 -61 13 -11 6 -28 11 -39 11 -10 1 -48 6 -84 11 -237 39
-861 76 -884 53z"/>
<path d="M4265 10048 c-67 -22 -93 -28 -116 -28 -13 0 -46 -7 -74 -16 -27 -8
-57 -17 -65 -19 -8 -3 -33 -9 -55 -15 -22 -7 -58 -15 -80 -20 -97 -21 -123
-29 -165 -51 -25 -12 -54 -22 -64 -21 -10 0 -32 -6 -48 -14 -17 -9 -62 -26
-101 -38 -40 -13 -97 -35 -127 -48 -30 -14 -92 -42 -137 -62 -164 -72 -247
-112 -302 -145 -31 -18 -83 -48 -116 -66 -129 -69 -326 -191 -429 -267 -28
-20 -66 -47 -84 -60 -19 -13 -56 -42 -83 -65 -27 -24 -53 -43 -58 -43 -18 0
-272 -224 -409 -362 -153 -153 -382 -411 -382 -430 0 -5 -18 -28 -40 -52 -22
-24 -51 -59 -65 -77 -37 -52 -229 -339 -253 -379 -35 -58 -113 -193 -129 -225
-9 -16 -22 -41 -30 -55 -72 -132 -208 -442 -252 -578 -17 -50 -39 -109 -51
-131 -11 -22 -20 -50 -20 -61 0 -12 -15 -70 -34 -128 -19 -59 -39 -125 -44
-147 -6 -22 -16 -59 -23 -82 -6 -23 -9 -50 -7 -61 3 -10 1 -28 -5 -38 -6 -10
-12 -30 -13 -44 -2 -14 -8 -43 -14 -65 -7 -22 -16 -65 -21 -95 -5 -30 -14 -82
-20 -115 -6 -33 -10 -106 -9 -162 1 -65 -3 -109 -11 -125 -19 -35 -21 -67 -21
-443 0 -372 1 -409 21 -440 11 -18 11 -17 5 10 -13 57 -16 763 -3 819 7 28 16
103 20 166 12 165 20 216 84 510 51 235 52 239 75 305 12 33 27 83 35 110 8
28 37 113 65 190 75 203 78 211 110 281 17 35 30 66 30 69 0 9 95 201 133 270
18 33 49 89 69 125 53 97 111 191 209 335 123 180 149 216 189 262 19 22 55
66 80 98 124 161 496 538 636 645 22 16 66 52 99 80 33 27 98 77 145 110 47
33 123 87 170 121 47 33 95 65 108 70 13 5 43 23 67 39 24 17 47 30 50 30 4 0
21 10 38 22 80 57 357 200 512 263 50 21 110 47 135 60 25 12 70 30 100 39 30
9 75 25 100 36 132 54 680 200 750 200 12 0 18 5 15 10 -8 12 -49 11 -90 -2z"/>
<path d="M4980 10039 c-372 -17 -800 -93 -1184 -210 -274 -84 -771 -300 -968
-421 -66 -41 -153 -93 -163 -97 -21 -9 -351 -240 -415 -290 -321 -255 -664
-604 -879 -896 -41 -55 -86 -116 -101 -135 -50 -66 -204 -310 -258 -410 -141
-263 -133 -246 -220 -445 -90 -208 -160 -403 -206 -570 -13 -49 -29 -103 -35
-120 -11 -33 -64 -266 -81 -355 -116 -625 -102 -1313 41 -1945 16 -71 34 -143
39 -160 5 -16 21 -73 35 -125 49 -179 127 -395 193 -541 12 -25 30 -69 42 -99
62 -156 291 -566 417 -745 101 -143 255 -345 298 -390 11 -11 60 -67 109 -124
127 -146 357 -364 526 -499 207 -165 221 -176 263 -201 21 -13 43 -28 50 -35
11 -11 58 -42 182 -121 97 -62 277 -165 289 -165 7 0 16 -4 21 -9 16 -15 377
-191 393 -191 3 0 45 -15 92 -34 125 -51 273 -103 375 -132 50 -14 106 -30
125 -35 19 -6 54 -14 78 -19 24 -6 47 -12 52 -15 11 -7 183 -42 295 -61 50 -8
110 -19 135 -24 142 -30 354 -44 695 -44 367 0 471 6 745 49 181 29 213 35
420 86 392 95 663 195 1049 388 300 150 554 315 860 559 36 29 80 65 97 80 16
15 61 55 100 89 70 62 250 243 360 363 174 189 455 573 555 760 9 17 28 47 41
68 29 44 203 395 248 502 63 146 188 511 222 645 31 123 88 393 98 460 4 33
13 89 18 125 6 36 15 124 22 195 6 72 15 173 20 225 9 92 -3 615 -15 663 -3
12 -13 81 -21 152 -24 203 -31 250 -78 465 -36 166 -84 348 -117 437 -11 32
-23 67 -26 78 -6 25 -70 199 -88 240 -7 17 -25 59 -40 95 -93 225 -302 611
-437 806 -29 42 -60 86 -68 98 -33 49 -116 162 -131 181 -9 11 -62 74 -117
140 -171 206 -434 466 -630 624 -52 42 -116 93 -141 113 -69 55 -405 279 -496
330 -130 74 -374 198 -459 235 -44 19 -94 40 -110 47 -175 76 -440 164 -666
222 -118 31 -180 44 -400 85 -104 19 -366 49 -520 59 -180 11 -293 11 -530 -1z
m545 -179 c310 -19 698 -84 950 -159 302 -89 438 -139 705 -258 442 -197 909
-516 1298 -888 133 -125 421 -456 502 -575 13 -19 27 -37 31 -40 9 -7 189
-277 189 -284 0 -3 20 -37 44 -75 51 -79 198 -360 243 -466 98 -226 193 -490
243 -675 24 -90 73 -296 80 -343 5 -28 18 -101 29 -162 53 -300 71 -802 41
-1125 -24 -245 -33 -314 -67 -480 -90 -452 -203 -788 -394 -1175 -298 -605
-690 -1104 -1196 -1524 -519 -431 -1023 -699 -1688 -900 -189 -57 -527 -127
-730 -151 -389 -47 -975 -38 -1295 19 -30 6 -84 15 -120 21 -111 18 -399 90
-580 145 -285 87 -684 268 -975 443 -53 32 -238 153 -305 199 -233 161 -590
483 -796 718 -65 74 -235 286 -277 345 -17 24 -92 133 -121 175 -178 262 -384
680 -501 1015 -170 490 -249 940 -262 1486 -6 274 5 439 53 784 47 336 189
824 329 1135 247 545 544 988 929 1383 55 56 102 105 105 110 7 8 125 113 241
213 360 312 870 613 1330 784 69 26 148 55 175 66 28 10 84 28 125 40 41 11
89 25 105 29 162 46 356 91 485 111 30 4 98 15 150 23 52 8 169 19 260 25 91
7 183 13 205 15 96 7 313 5 460 -4z"/>
<path d="M5030 9750 c-14 -4 -75 -8 -135 -9 -61 -1 -126 -6 -145 -11 -19 -6
-71 -15 -115 -20 -44 -6 -105 -14 -135 -19 -30 -5 -84 -14 -120 -19 -72 -11
-279 -61 -380 -91 -379 -114 -461 -146 -757 -287 -73 -35 -133 -65 -133 -66 0
-2 67 -1 148 0 302 7 524 -53 756 -206 88 -59 226 -194 300 -295 64 -87 45
-82 183 -46 40 11 87 19 105 19 17 0 57 4 87 10 161 28 206 33 316 41 249 17
296 22 300 29 3 4 5 126 6 271 0 193 4 284 15 338 21 100 16 347 -6 361 -18
12 -254 11 -290 0z"/>
<path d="M5452 9728 c-12 -16 -21 -160 -27 -478 -3 -135 -10 -267 -16 -295 -6
-27 -9 -84 -7 -125 l3 -75 112 -6 c61 -4 116 -10 121 -13 8 -5 85 -16 247 -36
33 -4 101 -19 150 -34 50 -15 110 -29 135 -32 l45 -5 45 62 c53 72 169 183
255 244 131 93 285 159 455 196 113 24 335 32 475 16 l70 -8 -35 24 c-38 26
-387 202 -423 213 -12 4 -44 17 -72 29 -72 33 -230 93 -305 116 -36 11 -87 28
-115 38 -58 21 -409 107 -475 116 -162 23 -269 41 -325 55 -61 15 -300 13
-313 -2z"/>
<path d="M3180 9185 c-8 -2 -49 -9 -90 -15 -406 -66 -765 -365 -914 -762 -68
-184 -91 -452 -52 -633 43 -200 107 -342 223 -497 154 -204 361 -348 605 -422
216 -65 472 -66 689 -1 194 58 349 154 504 310 163 165 249 317 312 553 23 86
26 117 27 272 1 158 -2 185 -26 280 -49 192 -121 338 -239 482 -168 206 -428
364 -679 413 -77 15 -324 29 -360 20z m99 -478 c16 4 21 -2 27 -34 3 -21 10
-43 15 -49 5 -6 10 -157 11 -335 l3 -324 100 -7 c55 -4 107 -8 115 -8 8 -1 49
3 90 9 131 18 162 14 273 -30 131 -52 190 -81 189 -94 -1 -5 -23 -13 -49 -17
-65 -9 -395 -8 -363 1 18 5 4 9 -51 14 -42 4 -91 2 -110 -3 -19 -6 -64 -10
-100 -10 l-66 0 -7 -46 c-10 -74 -7 -285 5 -328 l11 -38 135 7 c104 6 137 4
143 -5 9 -14 145 -3 328 27 52 8 95 13 98 11 10 -11 -57 -82 -120 -127 -114
-82 -170 -93 -531 -98 -165 -3 -374 0 -465 5 -99 6 -166 7 -168 1 -5 -14 -193
-11 -221 4 -30 15 -66 78 -58 100 5 13 19 17 62 17 30 0 63 4 73 9 9 5 131 17
271 26 140 8 258 18 263 21 4 3 8 18 8 34 0 16 5 32 10 35 6 3 8 16 6 28 -3
12 -10 83 -17 158 l-12 136 -141 6 c-77 3 -148 1 -156 -3 -9 -5 -91 -10 -183
-12 -143 -3 -168 -1 -182 13 -15 15 -11 21 62 71 92 65 117 75 149 57 19 -10
29 -10 51 1 19 9 90 15 213 19 l185 6 -3 140 c-1 85 1 135 7 126 18 -28 21 11
11 171 -14 229 -13 278 4 278 8 0 17 -7 20 -16 10 -27 26 -4 26 39 1 32 3 38
10 25 6 -10 18 -14 29 -11z"/>
<path d="M7130 9110 c-479 -55 -876 -373 -1024 -820 -47 -142 -59 -225 -59
-385 0 -220 38 -372 140 -566 77 -147 199 -291 328 -390 79 -60 95 -68 127
-62 22 4 27 1 30 -18 4 -29 72 -65 206 -109 248 -81 528 -78 772 6 169 60 324
158 455 289 372 372 460 928 221 1402 -108 216 -314 421 -534 532 -184 93
-461 144 -662 121z m222 -249 c20 -5 44 -16 53 -25 9 -9 25 -16 34 -16 10 0
24 -7 31 -15 7 -8 21 -15 30 -15 19 0 139 -126 152 -158 10 -27 9 -130 -2
-137 -5 -3 -10 -19 -10 -35 0 -41 -14 -73 -59 -134 -39 -53 -62 -69 -171 -122
-80 -38 -96 -64 -92 -146 l4 -68 40 33 c22 17 70 67 105 111 36 43 85 90 109
105 24 14 44 34 44 43 0 19 56 51 107 62 42 10 77 -9 69 -36 -3 -12 -1 -30 5
-40 11 -20 -7 -186 -22 -202 -5 -6 -9 -24 -9 -41 0 -17 -11 -73 -24 -125 -14
-52 -26 -128 -28 -167 -3 -61 -8 -77 -29 -100 -14 -16 -42 -56 -62 -89 -38
-64 -67 -96 -67 -75 0 8 -6 9 -17 2 -13 -6 -45 0 -108 19 -49 15 -97 29 -105
31 -12 3 -16 -13 -20 -86 -4 -52 -12 -100 -20 -114 -12 -18 -12 -25 -2 -28 6
-3 12 -9 12 -14 0 -6 -4 -8 -9 -5 -10 6 -21 -41 -21 -89 0 -18 -7 -50 -16 -71
-12 -29 -13 -43 -5 -56 6 -10 11 -25 11 -35 0 -15 -2 -14 -14 3 -8 10 -18 16
-22 11 -4 -4 5 -20 19 -35 15 -16 27 -31 27 -35 0 -16 -20 -4 -74 43 -31 28
-63 50 -70 50 -15 0 -106 92 -164 165 -54 68 -72 107 -72 153 0 51 29 133 49
139 9 3 28 22 43 43 28 40 82 74 151 94 l39 11 1 104 0 104 -61 22 c-68 25
-92 41 -92 61 0 14 -38 39 -47 30 -3 -2 6 -33 20 -68 17 -40 22 -67 16 -74 -6
-7 0 -35 16 -79 30 -78 30 -122 0 -61 -10 22 -21 34 -23 27 -2 -7 -13 5 -24
26 -11 21 -27 42 -34 48 -18 14 -214 458 -214 487 -1 12 -7 34 -15 48 -8 14
-14 31 -15 38 0 28 23 8 61 -50 22 -35 46 -63 54 -63 8 0 30 -19 51 -43 54
-63 153 -135 239 -173 41 -18 75 -36 75 -41 0 -4 9 -8 20 -8 24 0 28 38 5 46
-22 9 -20 109 3 153 15 31 30 40 125 77 59 23 114 47 122 54 7 6 25 14 39 18
14 4 25 11 25 15 0 5 6 14 14 20 22 17 47 100 47 152 0 27 -8 58 -22 82 -26
44 -87 113 -100 113 -5 0 -28 9 -51 21 -55 27 -129 34 -197 20 -45 -9 -67 -22
-117 -66 -34 -31 -71 -70 -82 -89 l-21 -33 35 -59 c39 -65 41 -74 21 -112 -24
-46 -49 -62 -113 -68 -54 -6 -65 -4 -89 15 -39 31 -59 92 -44 136 11 34 61 85
83 85 7 0 25 27 40 59 34 71 124 174 144 167 8 -3 12 -2 8 3 -4 8 80 41 140
54 35 8 99 7 137 -2z"/>
<path d="M6876 8509 c-21 -16 -26 -29 -26 -63 0 -67 42 -93 105 -64 21 10 25
17 20 37 -4 20 -3 22 5 11 7 -12 10 -8 10 17 0 37 -37 83 -67 83 -11 0 -32 -9
-47 -21z"/>
<path d="M7705 8224 c-44 -23 -70 -50 -136 -140 -50 -70 -75 -94 -95 -94 -2 0
0 8 3 17 6 14 1 13 -24 -5 -34 -24 -53 -45 -68 -76 -6 -11 -26 -31 -45 -44
l-35 -22 0 -113 0 -112 60 -28 c33 -16 65 -37 73 -48 13 -19 42 -26 42 -11 0
4 17 31 39 59 35 47 38 55 31 95 -8 56 -5 65 33 88 27 17 35 34 67 142 20 68
43 148 50 178 7 30 21 66 31 79 19 24 25 51 12 51 -5 0 -21 -7 -38 -16z"/>
<path d="M7304 8157 c-15 -13 -25 -29 -23 -35 2 -7 17 4 32 23 32 41 29 45 -9
12z"/>
<path d="M6906 8137 c13 -33 235 -169 250 -154 4 3 -22 19 -57 35 -35 16 -94
52 -131 80 -37 28 -65 45 -62 39z"/>
<path d="M7178 7973 c7 -3 16 -2 19 1 4 3 -2 6 -13 5 -11 0 -14 -3 -6 -6z"/>
<path d="M7610 7748 c-33 -36 -20 -78 25 -78 44 0 61 52 27 83 -24 22 -27 21
-52 -5z"/>
<path d="M7095 7559 c-44 -17 -53 -25 -72 -69 -15 -31 -23 -69 -23 -102 0 -47
4 -57 38 -94 20 -22 70 -78 111 -123 40 -45 76 -79 79 -76 3 3 0 11 -6 17 -7
7 -12 32 -12 57 0 26 -5 128 -12 229 -13 207 -8 199 -103 161z"/>
<path d="M4910 8669 c-121 -14 -282 -38 -325 -48 -22 -5 -67 -14 -100 -21 -33
-6 -64 -15 -68 -20 -13 -11 35 -105 53 -104 8 1 80 13 160 27 435 78 815 75
1265 -8 95 -18 190 -41 203 -49 9 -5 66 103 59 111 -3 2 -43 13 -88 24 -46 10
-100 23 -119 28 -96 25 -186 38 -402 61 -116 12 -532 11 -638 -1z"/>
<path d="M2002 8406 c-95 -95 -172 -178 -172 -184 0 -5 -22 -32 -48 -59 -26
-27 -61 -67 -77 -88 -16 -22 -41 -53 -56 -70 -14 -16 -45 -57 -68 -90 -63 -90
-113 -158 -128 -174 -8 -7 -23 -31 -34 -53 -11 -22 -35 -61 -53 -86 -19 -26
-46 -72 -61 -102 -15 -30 -40 -73 -55 -95 -24 -35 -170 -327 -170 -340 0 -2
-14 -35 -31 -72 -37 -80 -45 -123 -31 -150 11 -20 100 -60 254 -112 46 -16
128 -47 183 -68 55 -22 118 -46 140 -53 22 -7 58 -21 80 -31 61 -28 207 -80
229 -82 16 -2 26 14 50 73 17 41 64 140 104 219 70 140 106 203 205 357 l49
75 -45 67 c-88 132 -143 261 -179 424 -30 137 -32 416 -4 548 19 90 63 226 90
278 39 76 15 58 -172 -132z"/>
<path d="M4996 8473 c-4 -4 -58 -11 -119 -15 -172 -12 -364 -41 -381 -58 -6
-6 -2 -52 12 -122 69 -364 9 -708 -173 -985 -69 -105 -221 -259 -320 -324
-237 -158 -467 -218 -784 -206 -263 10 -456 73 -669 220 l-54 37 -22 -28 c-69
-83 -259 -448 -308 -592 -15 -47 -37 -107 -48 -135 -25 -66 -85 -275 -100
-350 -7 -33 -16 -73 -21 -89 -5 -16 -9 -46 -9 -67 0 -21 -7 -64 -15 -96 -8
-31 -15 -90 -15 -129 0 -80 3 -84 72 -84 60 0 229 -37 320 -70 290 -106 533
-339 657 -632 62 -144 82 -244 88 -439 6 -185 -7 -294 -53 -442 -65 -207 -226
-435 -394 -557 -33 -25 -60 -47 -60 -51 0 -22 184 -240 307 -362 150 -150 406
-366 483 -407 14 -7 62 -37 107 -67 45 -29 85 -53 88 -53 4 0 26 -14 51 -31
24 -16 92 -53 152 -80 59 -28 130 -61 157 -74 l50 -24 51 107 c114 238 278
411 494 521 182 93 343 131 554 131 328 0 589 -99 807 -307 139 -133 230 -273
294 -455 15 -43 33 -78 40 -78 12 0 61 17 190 65 79 30 311 142 425 206 156
88 453 298 525 371 16 17 53 48 80 68 53 40 172 159 198 199 9 13 42 51 74 85
32 33 71 79 86 101 15 22 45 63 66 91 l40 51 -47 31 c-189 123 -356 332 -432
540 -60 164 -72 251 -67 482 4 181 7 215 29 290 88 300 262 529 518 681 137
81 324 140 493 154 l79 7 -5 86 c-7 102 -10 125 -53 337 -29 146 -96 363 -160
517 -49 122 -169 362 -212 425 l-28 42 -59 -40 c-212 -143 -440 -209 -719
-209 -222 0 -389 35 -563 116 -39 19 -73 34 -75 34 -10 0 -68 -58 -68 -68 0
-7 -17 -23 -39 -36 -41 -26 -51 -52 -51 -131 l0 -42 98 -6 c105 -7 177 -15
232 -26 29 -6 35 -11 35 -31 0 -17 -7 -26 -20 -29 -11 -2 -26 -12 -33 -22 -8
-11 -25 -19 -41 -19 -41 0 -63 -23 -116 -125 -26 -49 -62 -115 -80 -145 -60
-99 -72 -154 -85 -388 l-12 -212 24 -20 c13 -11 27 -19 32 -20 5 0 17 -6 25
-14 9 -7 47 -29 84 -49 76 -39 82 -38 181 15 52 28 98 39 179 43 61 4 67 2 67
-16 0 -13 -17 -28 -51 -47 -28 -15 -73 -42 -100 -59 -27 -18 -53 -33 -58 -33
-5 0 -12 -4 -15 -9 -3 -5 22 -23 56 -40 109 -52 203 -117 203 -137 0 -32 -102
-22 -169 16 -29 17 -61 30 -72 30 -10 0 -50 11 -88 24 l-70 25 -30 -22 c-20
-14 -25 -22 -15 -25 42 -13 71 -82 34 -82 -8 0 -15 -7 -15 -15 0 -9 14 -17 39
-21 32 -5 43 -13 55 -39 9 -18 16 -47 16 -64 0 -19 5 -31 13 -31 18 0 47 -32
47 -52 0 -9 -7 -21 -15 -28 -21 -17 -19 -30 4 -30 11 0 23 -5 26 -11 4 -5 18
-14 31 -19 20 -8 24 -16 24 -53 0 -38 3 -44 30 -54 16 -6 35 -23 42 -38 11
-24 10 -29 -12 -46 -25 -18 -25 -19 -3 -19 32 0 85 -48 81 -74 -2 -16 -11 -22
-35 -24 -21 -2 -34 -10 -38 -23 -4 -10 -15 -19 -26 -19 -24 0 -24 -7 1 -45
l20 -30 0 26 c0 39 29 59 78 55 51 -4 67 -17 83 -64 7 -20 18 -41 24 -47 7 -5
16 -23 19 -38 9 -39 -24 -79 -76 -92 l-40 -10 21 -25 c11 -14 20 -20 21 -13 0
12 63 53 82 53 12 0 98 -81 98 -93 0 -4 11 -23 24 -40 13 -18 26 -52 29 -77 5
-39 2 -51 -26 -92 -35 -52 -55 -59 -75 -28 -14 24 -32 26 -32 5 0 -8 -8 -15
-19 -15 -14 0 -17 -6 -13 -25 2 -14 8 -28 13 -31 14 -8 11 -50 -4 -63 -22 -18
-178 -21 -205 -3 -19 12 -30 13 -63 3 -33 -10 -43 -9 -61 4 -30 21 -55 19 -68
-5 -14 -26 -42 -26 -65 0 -17 18 -20 19 -35 5 -10 -9 -34 -19 -54 -22 -34 -5
-36 -4 -36 20 0 16 -8 31 -20 37 -11 6 -20 17 -20 25 0 13 -3 13 -20 3 -11 -7
-20 -18 -20 -24 0 -6 -11 -23 -25 -38 -28 -30 -64 -34 -101 -10 -23 16 -27 16
-63 -1 -47 -21 -75 -17 -79 12 -6 41 -26 45 -57 13 -32 -34 -47 -37 -65 -15
-10 12 -16 13 -26 4 -8 -6 -27 -9 -44 -6 -19 4 -40 0 -58 -10 -27 -16 -31 -16
-67 1 -35 17 -39 17 -69 1 -43 -23 -81 -17 -81 13 0 13 -8 28 -18 33 -12 7
-17 22 -17 49 0 26 -5 40 -13 40 -10 0 -12 -15 -9 -58 5 -73 -11 -97 -56 -87
-41 9 -67 59 -58 110 7 34 6 35 -25 35 -26 0 -30 -2 -19 -15 8 -9 10 -28 5
-55 -5 -31 -14 -44 -35 -55 -39 -20 -43 -30 -25 -64 8 -17 15 -41 15 -55 0
-13 8 -38 18 -55 13 -24 14 -35 6 -48 -21 -34 -49 -27 -90 23 -22 26 -60 70
-86 96 l-46 49 -5 -213 c-4 -225 -14 -288 -46 -288 -16 0 -19 12 -25 92 -3 50
-7 137 -7 192 -1 56 -4 130 -8 166 l-6 65 -30 -48 c-24 -39 -35 -47 -55 -45
-14 1 -37 -6 -52 -16 -29 -19 -58 -16 -58 6 0 7 12 35 25 63 21 42 22 51 10
58 -8 4 -15 20 -15 34 0 24 -1 25 -17 11 -31 -25 -79 -40 -134 -39 -30 0 -63
1 -74 0 -66 -1 -81 2 -91 16 -14 19 -48 19 -64 0 -7 -8 -23 -15 -35 -15 -12 0
-28 7 -35 15 -17 21 -42 19 -63 -5 -20 -24 -88 -27 -126 -6 -20 11 -28 11 -52
-1 -38 -19 -63 -13 -67 15 -2 12 -12 27 -23 32 -13 8 -19 21 -19 46 0 21 -4
33 -10 29 -5 -3 -10 -30 -10 -60 0 -100 -31 -187 -57 -161 -4 3 -9 25 -12 49
-5 37 -9 42 -29 39 -13 -2 -32 4 -43 13 -17 16 -22 16 -68 1 -58 -19 -172 -21
-189 -4 -9 9 -19 9 -46 0 -49 -18 -69 -7 -63 34 3 19 3 50 0 69 -5 31 -9 35
-34 35 -32 0 -38 -14 -13 -28 11 -6 14 -20 12 -48 -3 -34 -8 -41 -41 -57 -48
-22 -71 -19 -75 11 -4 27 -18 28 -32 2 -13 -24 -46 -26 -58 -4 -6 11 -11 13
-16 5 -4 -6 -21 -11 -38 -11 -30 0 -30 0 -26 48 3 26 8 55 13 65 7 17 4 18
-29 12 -32 -7 -36 -5 -36 14 0 18 -3 20 -19 11 -28 -14 -42 -6 -74 44 -30 48
-35 76 -12 76 9 0 15 9 15 24 0 41 18 76 39 76 15 0 20 10 25 45 7 41 10 45
36 45 15 0 30 -3 33 -7 2 -5 2 -1 -1 7 -3 8 -7 27 -10 43 -3 22 -1 27 17 27
17 0 21 6 21 35 0 29 4 35 20 35 26 0 72 -23 89 -44 18 -22 26 -20 39 9 16 36
17 35 -27 35 -32 0 -43 5 -60 29 -30 42 -26 68 17 111 22 22 42 54 48 77 8 35
12 38 44 38 53 0 59 8 46 55 -8 33 -8 43 4 50 8 5 18 6 22 4 4 -3 8 10 8 29 0
51 27 53 82 6 25 -21 48 -35 52 -32 16 16 2 34 -49 58 -44 22 -55 32 -55 52 0
28 21 53 45 53 18 0 35 38 35 80 0 23 5 31 25 36 28 7 27 5 29 61 2 47 19 73
47 73 16 0 18 5 13 26 -5 21 -2 31 15 44 l23 16 -25 17 c-23 15 -27 14 -93
-19 -38 -20 -82 -48 -99 -62 -43 -39 -70 -52 -106 -52 -17 0 -49 -11 -72 -24
-23 -14 -63 -28 -89 -31 -43 -7 -48 -5 -48 13 0 19 27 41 113 91 20 13 43 30
50 40 6 9 52 42 101 72 50 31 91 60 94 67 2 6 -16 21 -40 32 -82 41 -208 133
-208 152 0 22 13 22 87 2 32 -9 75 -16 96 -15 30 1 56 -9 115 -45 l77 -46 64
33 c60 32 103 62 143 102 16 15 18 36 18 190 l0 172 -45 75 c-25 41 -45 80
-45 87 0 6 -27 56 -61 109 -33 54 -74 124 -90 156 -16 32 -35 58 -42 58 -7 0
-30 9 -52 20 -22 11 -47 20 -57 20 -9 0 -19 4 -23 9 -8 13 63 2 99 -15 16 -8
35 -14 42 -14 8 0 27 -26 43 -58 16 -32 57 -102 90 -156 34 -53 61 -102 61
-107 0 -5 20 -45 44 -87 l45 -77 2 -185 c1 -102 -2 -192 -5 -200 -12 -26 -199
-150 -227 -150 -6 0 -48 23 -94 51 -46 28 -89 49 -96 47 -7 -2 3 -14 22 -26
52 -33 16 -26 -47 9 -30 17 -57 29 -61 26 -3 -3 -23 1 -45 10 -21 8 -42 12
-46 8 -4 -4 -2 -10 5 -12 6 -2 37 -22 68 -44 31 -22 79 -51 106 -65 50 -25 89
-57 89 -72 0 -5 -36 -28 -80 -52 -44 -23 -103 -63 -131 -87 -29 -24 -68 -53
-88 -63 -47 -25 -87 -57 -80 -64 7 -7 63 11 120 41 26 12 59 23 74 23 33 0 60
14 105 54 19 17 65 47 102 66 l68 35 46 -24 c25 -14 48 -31 51 -38 3 -7 11
-13 19 -13 19 0 84 -32 84 -42 0 -5 -17 -37 -38 -71 -22 -34 -63 -102 -92
-152 -29 -49 -69 -117 -90 -150 -51 -83 -143 -240 -174 -300 -31 -58 -46 -76
-46 -55 0 22 -65 70 -94 70 -24 0 -66 -40 -66 -64 0 -25 26 -65 44 -70 11 -3
38 3 60 14 23 10 42 15 44 10 4 -11 -70 -133 -83 -137 -5 -1 -18 11 -27 27
-10 17 -25 33 -35 37 -10 4 -21 11 -24 16 -13 19 -28 -4 -22 -33 5 -27 3 -30
-20 -30 l-25 0 16 -44 c14 -39 19 -43 46 -42 25 1 31 -3 31 -19 0 -14 -6 -19
-20 -17 -11 2 -31 5 -44 6 -14 2 -31 12 -39 24 -30 45 -50 19 -43 -55 1 -19
-3 -23 -29 -23 -29 0 -30 -2 -30 -45 0 -33 -4 -45 -15 -45 -21 0 -19 -14 10
-60 24 -39 55 -46 55 -14 0 8 9 14 21 14 18 0 20 -4 14 -30 -6 -28 -5 -30 17
-25 31 7 190 13 205 7 8 -2 11 -13 7 -28 -4 -13 -1 -31 6 -39 10 -12 9 -20 -5
-41 -12 -19 -14 -29 -6 -37 8 -8 14 -8 23 1 7 7 20 12 30 12 14 0 38 27 38 43
0 2 -11 16 -25 31 -47 50 -37 56 90 56 111 0 115 -1 105 -19 -14 -28 -12 -41
5 -35 19 8 19 -3 -1 -23 -8 -9 -14 -27 -12 -42 3 -25 6 -26 63 -28 55 -2 77 3
127 28 18 9 43 3 67 -15 8 -6 26 -11 40 -11 15 0 26 -6 28 -15 1 -8 5 -33 8
-55 11 -64 25 -20 32 97 3 57 11 106 17 110 14 9 396 10 489 1 37 -3 67 -10
67 -14 0 -5 -10 -8 -22 -6 -28 3 -45 -49 -23 -73 8 -9 12 -20 9 -23 -9 -9 45
-29 57 -21 6 3 9 13 7 22 -1 10 1 18 5 20 18 6 27 1 27 -17 0 -26 41 -36 57
-14 9 12 16 13 26 5 19 -16 81 7 106 40 l21 26 -25 16 c-39 26 -69 21 -82 -14
-17 -45 -43 -39 -43 10 l0 40 85 2 c47 0 91 1 98 2 18 2 20 -49 3 -83 -23 -44
-21 -65 4 -51 31 16 26 -9 -16 -85 -20 -36 -31 -65 -24 -65 6 0 31 20 56 45
24 25 46 45 49 45 2 0 0 -12 -6 -26 -18 -48 -1 -37 31 19 31 56 57 77 65 54 2
-6 6 -109 7 -228 2 -168 6 -220 17 -233 31 -37 36 -1 33 240 -3 158 0 234 7
234 6 0 29 -27 51 -60 22 -33 44 -60 48 -60 5 0 27 -27 51 -61 38 -54 45 -59
58 -46 13 13 12 19 -4 53 -11 22 -18 47 -15 57 2 9 -13 43 -32 74 -35 56 -41
79 -12 50 14 -13 19 -13 49 2 19 9 33 19 30 23 -2 4 2 16 9 27 10 17 8 23 -15
45 -15 14 -27 28 -27 31 0 3 41 5 90 5 75 0 90 -3 90 -16 0 -11 -8 -15 -27
-12 -22 2 -28 -2 -34 -27 -6 -21 -4 -34 6 -45 8 -9 15 -21 15 -27 0 -13 39
-25 53 -16 6 3 7 33 4 70 -5 46 -3 65 6 68 17 5 649 13 664 8 10 -4 10 -10 2
-25 -8 -16 -8 -23 2 -29 11 -7 12 -12 2 -29 -17 -27 -18 -26 24 -55 44 -29 53
-31 53 -9 0 9 9 18 19 21 11 3 18 10 16 16 -7 18 43 69 63 65 9 -2 17 -11 17
-21 0 -10 8 -23 18 -28 9 -6 17 -21 17 -34 0 -29 10 -31 50 -10 31 16 40 40
18 48 -10 3 -8 9 5 24 27 31 22 46 -13 38 -34 -7 -103 12 -95 26 7 10 117 12
153 3 27 -8 28 -19 2 -51 -26 -33 -25 -46 4 -80 l25 -28 16 23 c14 19 23 22
53 17 20 -3 39 -10 42 -15 3 -5 21 -4 42 3 27 8 38 18 41 37 6 31 1 40 -24 40
-11 0 -22 7 -25 15 -5 13 -9 13 -21 3 -9 -7 -29 -11 -45 -9 -26 2 -28 1 -22
-23 3 -14 2 -26 -2 -26 -13 0 -55 78 -46 84 11 6 221 -2 234 -10 5 -4 0 -16
-12 -30 -25 -25 -22 -64 6 -91 13 -14 17 -13 34 2 21 19 28 79 10 90 -22 14
-10 35 20 35 40 0 47 -20 26 -73 -9 -24 -16 -48 -16 -54 0 -12 38 -12 57 0 6
4 18 4 26 1 8 -3 18 0 22 6 9 15 -14 72 -37 88 -28 20 -22 30 20 34 35 3 37 5
34 33 -4 32 -41 102 -105 199 -21 33 -55 89 -74 125 -74 139 -166 300 -220
386 -57 92 -265 460 -276 488 -6 16 25 40 126 97 l59 32 86 -27 c48 -15 112
-39 142 -53 77 -36 142 -53 155 -40 7 7 7 12 0 14 -5 2 -35 20 -65 39 -30 19
-92 53 -137 76 -46 22 -83 44 -83 49 0 5 19 18 43 30 103 51 201 107 205 118
5 15 1 15 -34 2 -18 -7 -30 -7 -39 0 -10 8 -22 7 -45 -5 -18 -9 -34 -14 -37
-12 -2 3 -43 -14 -90 -38 -58 -29 -92 -41 -106 -36 -27 8 -123 60 -197 106
-30 19 -59 36 -64 38 -5 2 -6 12 -2 22 6 15 9 17 15 6 5 -8 12 34 16 105 19
336 20 344 57 419 53 109 170 319 182 328 6 4 28 10 49 13 22 4 42 15 48 25 5
11 18 19 29 19 10 0 21 4 24 9 10 16 -84 32 -230 38 l-144 6 0 56 c0 106 9
130 51 152 22 11 39 24 39 29 0 13 50 63 92 90 48 32 39 44 -15 21 -84 -36
-171 -61 -180 -52 -5 5 -12 53 -15 106 -5 105 -22 124 -34 40 -4 -26 -12 -53
-17 -58 -6 -6 -11 -28 -11 -48 0 -80 -34 -118 -165 -188 -22 -12 -47 -25 -55
-29 -8 -5 -42 -22 -75 -38 -33 -16 -89 -46 -125 -66 -65 -38 -113 -48 -126
-27 -4 7 1 16 10 21 19 11 21 47 3 54 -7 2 -34 -7 -60 -21 -46 -26 -73 -51
-43 -39 11 4 16 0 16 -15 0 -14 -6 -21 -19 -21 -14 0 -33 24 -67 86 -25 48
-77 133 -113 190 -98 150 -118 191 -103 206 10 10 15 10 22 -2 9 -13 11 -13
20 0 5 8 17 15 27 15 11 0 19 9 21 23 2 13 10 26 18 29 23 9 16 33 -16 51 -27
15 -30 21 -25 50 5 27 3 32 -13 32 -10 0 -27 9 -36 19 -11 12 -31 19 -52 19
-31 0 -34 -3 -34 -30 0 -43 18 -72 35 -58 19 16 57 3 53 -18 -2 -9 -12 -18
-22 -20 -11 -2 -27 -13 -36 -24 -21 -26 -19 -28 -105 130 -28 51 -65 72 -65
36 0 -18 -87 -184 -97 -184 -3 0 -15 10 -27 23 -12 12 -35 34 -52 48 -16 14
-35 35 -42 45 -12 17 -12 16 -7 -8 3 -16 1 -28 -5 -28 -6 0 -15 -11 -21 -24
-10 -20 -8 -30 11 -56 15 -22 28 -30 41 -27 13 4 25 -5 40 -29 l21 -34 -27
-57 c-14 -32 -40 -75 -57 -96 -48 -61 -132 -189 -147 -225 -19 -45 -44 -41
-100 14 -41 41 -46 44 -49 25 -2 -12 -8 -21 -14 -21 -5 0 -8 -6 -5 -14 3 -7 1
-18 -5 -24 -24 -24 4 -35 73 -28 55 5 69 3 69 -8 0 -30 -27 -38 -102 -31 -69
7 -83 13 -248 108 -156 89 -222 125 -270 147 -11 5 -16 28 -18 90 -2 72 -5 83
-22 87 -20 5 -28 33 -10 33 6 0 10 -4 10 -10 0 -5 6 -10 14 -10 18 0 26 -31
26 -106 0 -61 11 -84 40 -84 10 0 57 -24 106 -53 122 -73 289 -167 297 -167 4
0 7 6 7 14 0 7 7 27 15 42 8 16 15 37 15 47 0 26 54 23 73 -5 9 -13 16 -18 16
-11 1 6 -3 15 -9 18 -5 3 -10 33 -10 65 0 55 2 60 25 66 20 5 25 12 25 39 0
43 9 65 26 65 8 0 14 9 14 21 0 11 11 35 25 53 14 18 25 40 25 49 0 19 45 51
59 43 6 -4 8 6 4 27 -3 20 0 44 8 58 7 13 13 33 13 44 1 13 9 21 23 23 15 2
23 11 25 30 3 24 7 27 42 26 29 -1 35 1 23 8 -22 12 -21 40 3 88 23 46 50 52
90 20 14 -11 31 -20 39 -20 18 0 40 -30 41 -55 1 -12 6 -5 15 19 7 21 20 43
27 47 25 16 94 10 111 -9 21 -23 22 -68 2 -76 -24 -9 -18 -36 8 -36 13 0 32
-9 42 -20 10 -11 27 -20 38 -20 17 0 19 -5 14 -33 -4 -28 -1 -35 24 -49 29
-17 40 -60 19 -73 -15 -9 -12 -25 5 -25 8 0 15 -7 15 -15 0 -8 11 -17 25 -21
27 -7 27 -7 29 -79 1 -49 2 -50 34 -53 28 -3 32 -7 32 -34 0 -21 6 -31 20 -35
12 -3 20 -14 20 -27 0 -25 8 -37 35 -52 11 -6 21 -24 23 -40 2 -19 11 -33 25
-39 15 -7 23 -20 25 -42 4 -41 17 -41 79 -5 26 15 75 40 108 56 33 15 69 32
80 39 11 6 45 24 75 41 113 61 143 96 153 181 3 22 11 59 18 82 l13 41 -50 57
c-217 249 -324 533 -324 860 0 120 14 234 41 336 34 131 34 129 -36 151 -97
29 -176 43 -395 69 -106 13 -603 23 -614 12z m319 -1457 l30 -56 -40 -74 c-21
-41 -43 -72 -47 -70 -10 6 -11 258 -1 267 10 11 26 -7 58 -67z m-100 -155 c-4
-11 -14 -1 -35 34 -16 28 -30 55 -30 60 0 6 15 33 33 60 l32 50 3 -94 c1 -52
0 -101 -3 -110z m-1090 42 c-2 -21 -7 -60 -10 -86 l-6 -48 -37 7 c-20 3 -50
15 -67 25 -35 22 -12 25 25 4 43 -24 67 -19 74 16 3 17 6 44 6 59 0 28 9 60
16 60 2 0 2 -17 -1 -37z m1390 -228 c64 -108 113 -200 110 -205 -3 -6 -28 -10
-56 -10 -63 0 -65 -20 -1 -21 69 -1 97 -11 100 -37 3 -18 -9 -28 -72 -59 -48
-23 -79 -34 -85 -28 -5 6 -50 89 -100 187 -51 97 -98 179 -107 182 -12 5 -5
23 33 96 26 49 51 90 55 90 4 0 59 -88 123 -195z m-361 103 c45 -79 46 -82 27
-99 -10 -9 -55 -89 -101 -176 -45 -87 -85 -161 -89 -165 -4 -4 -20 -4 -36 2
-17 5 -42 12 -56 15 -15 2 -36 13 -49 23 -19 16 -20 21 -9 45 9 20 19 27 40
27 15 0 31 5 34 10 3 6 -3 10 -14 10 -12 0 -21 6 -21 13 0 6 27 57 60 112 32
55 80 137 105 183 26 45 50 82 55 82 4 0 29 -37 54 -82z m-1154 -2 c17 -9 37
-30 45 -46 8 -16 24 -34 35 -40 18 -9 20 -21 20 -94 0 -106 -5 -111 -102 -102
-48 5 -117 2 -201 -9 -71 -9 -131 -15 -133 -12 -9 9 153 29 279 34 82 4 130
10 132 17 2 6 6 37 9 68 7 62 6 63 -86 159 -21 21 -37 46 -37 56 1 14 2 15 6
2 2 -8 17 -23 33 -33z m302 -212 c54 -31 96 -59 93 -64 -2 -4 -51 -7 -107 -6
l-103 1 -3 29 c-4 34 6 96 15 96 4 0 51 -25 105 -56z m2026 -11 l-3 -56 -107
-2 c-60 -1 -108 1 -108 6 0 11 54 39 77 39 10 0 43 16 73 35 30 19 59 35 63
35 4 0 7 -25 5 -57z m-1003 -96 c41 -75 41 -77 15 -77 -12 0 -25 -10 -32 -25
-6 -14 -16 -24 -22 -22 -14 5 -21 187 -7 187 6 0 26 -29 46 -63z m-118 -43
c-7 -7 -35 7 -40 20 -3 8 4 29 16 47 l22 34 3 -49 c2 -26 1 -50 -1 -52z m-629
-7 c33 -18 35 -40 4 -35 -12 2 -18 -6 -20 -28 -3 -29 1 -34 44 -54 46 -23 47
-23 61 -4 7 10 11 24 8 31 -18 46 -19 44 9 32 23 -11 26 -16 20 -48 -4 -20
-17 -49 -29 -66 -12 -16 -39 -59 -59 -95 -21 -36 -50 -85 -65 -110 -15 -25
-44 -76 -65 -115 -21 -38 -54 -99 -74 -135 -37 -68 -60 -100 -72 -100 -14 0
-20 31 -10 51 9 16 2 27 -43 71 -30 29 -58 66 -61 81 -4 15 -18 38 -32 50
l-26 22 7 230 c4 127 9 232 10 235 2 3 83 5 182 5 152 0 183 -3 211 -18z
m-478 -125 c0 -76 -3 -142 -7 -145 -8 -8 -19 8 -63 88 -18 33 -48 87 -66 121
-19 33 -31 64 -27 67 3 4 42 7 85 7 l78 0 0 -138z m1060 108 c0 -21 -15 -27
-25 -10 -7 12 2 30 16 30 5 0 9 -9 9 -20z m1158 11 c10 -6 12 -51 9 -202 -4
-199 -10 -253 -32 -279 -6 -8 -29 -43 -49 -77 -21 -35 -44 -63 -53 -63 -8 0
-13 -6 -10 -13 7 -20 -21 -79 -35 -75 -12 4 -60 82 -137 223 -18 33 -67 119
-108 190 -42 72 -86 149 -100 172 l-24 43 33 20 c18 11 43 20 55 20 12 0 27 9
33 20 10 18 23 20 193 23 100 1 189 3 197 5 8 1 21 -2 28 -7z m207 -1 c9 -14
-70 -160 -87 -160 -10 0 -11 154 -1 163 10 11 81 8 88 -3z m-1387 -68 c2 -14
11 -22 23 -22 10 0 19 -7 19 -15 0 -8 -6 -15 -14 -15 -8 0 -21 -3 -29 -6 -24
-9 -51 39 -37 66 14 26 34 21 38 -8z m279 -35 c18 -33 16 -36 -22 -30 -36 6
-41 -1 -36 -44 4 -28 -17 -10 -42 36 -15 27 -27 52 -27 55 0 3 19 3 41 0 39
-7 41 -6 30 14 -6 11 -11 24 -11 27 0 11 55 -36 67 -58z m-596 -21 c11 -13 38
-32 60 -41 21 -10 39 -22 39 -27 0 -5 -27 -62 -60 -127 -33 -65 -60 -123 -60
-130 0 -6 -4 -11 -10 -11 -5 0 -19 -18 -30 -40 -12 -23 -33 -48 -48 -58 -48
-29 -181 -147 -171 -150 5 -2 20 3 32 10 29 20 77 31 77 19 0 -17 -155 -311
-165 -314 -5 -1 -21 21 -34 48 -13 28 -32 67 -42 87 -11 20 -19 39 -19 42 0 3
22 17 49 30 42 22 48 28 44 50 -4 21 1 29 27 43 47 26 66 41 60 46 -3 3 -16 0
-30 -6 -53 -22 -94 -36 -98 -33 -5 5 207 378 222 390 7 6 33 47 56 91 64 119
66 121 101 81z m935 -18 c9 -18 47 -85 84 -148 140 -240 222 -392 216 -398 -4
-3 -19 1 -34 10 -15 8 -43 18 -63 22 -20 3 -46 17 -58 30 -13 14 -45 34 -73
46 -27 12 -48 24 -45 26 3 3 48 -16 101 -42 54 -25 99 -44 101 -42 3 2 -50 33
-118 67 -118 62 -176 103 -177 128 0 6 -27 64 -61 128 -33 64 -59 118 -57 121
11 10 145 82 155 83 7 1 20 -14 29 -31z m-666 -128 c0 -15 -36 -12 -50 5 -7 8
-19 15 -26 15 -15 0 -19 12 -8 23 9 8 84 -31 84 -43z m439 -34 c26 -41 26 -42
1 -49 -14 -3 -20 0 -20 10 0 14 -3 14 -20 -2 -21 -19 -50 -14 -50 9 0 8 6 19
13 23 8 4 16 16 20 26 10 27 33 20 56 -17z m-519 -6 c29 -21 42 -18 33 8 -5
12 -2 14 11 9 10 -4 20 -7 22 -7 3 0 -2 -13 -10 -29 -13 -23 -20 -28 -43 -24
-29 6 -53 28 -53 50 0 18 7 16 40 -7z m-22 -74 c17 0 19 -2 10 -13 -6 -8 -25
-21 -41 -30 -25 -12 -31 -13 -38 -1 -7 10 -9 9 -9 -4 0 -10 -10 -22 -22 -29
-18 -10 -20 -9 -15 5 4 9 21 39 39 66 30 47 32 48 43 27 6 -13 20 -22 33 -21z
m-3 25 c3 -5 1 -12 -5 -16 -5 -3 -10 1 -10 9 0 18 6 21 15 7z m595 -32 c7 -11
9 -23 7 -26 -7 -6 -47 16 -47 26 0 26 26 27 40 0z m-400 -103 c0 -14 -16 -62
-35 -107 -19 -46 -35 -92 -35 -101 0 -27 -221 -238 -248 -238 -5 0 -13 11 -16
25 -7 29 -1 43 121 262 73 132 88 153 116 162 83 26 97 25 97 -3z m211 2 c40
-17 60 -47 164 -237 83 -154 83 -154 2 -344 -9 -21 -17 -27 -32 -23 -33 9
-100 -14 -133 -45 -25 -24 -30 -34 -23 -52 13 -34 36 -32 61 7 24 39 40 44 64
20 19 -18 19 -24 6 -59 -8 -22 -15 -26 -34 -21 -12 3 -31 0 -41 -8 -17 -12
-17 -14 3 -34 45 -45 123 -12 137 58 4 19 21 51 38 69 30 36 77 130 77 156 0
8 6 15 14 15 15 0 29 -27 21 -40 -3 -5 10 -41 30 -79 l35 -70 -61 -27 c-33
-15 -79 -42 -102 -61 -23 -18 -50 -33 -60 -33 -10 0 -42 -22 -71 -50 -29 -27
-60 -50 -68 -50 -16 0 -114 -100 -145 -146 -8 -13 -20 -24 -25 -24 -9 0 -4
222 10 475 3 50 5 177 4 283 0 105 2 192 6 192 4 0 22 -44 41 -98 34 -98 93
-228 111 -246 17 -17 11 -1 -24 76 -44 93 -71 174 -101 304 -14 57 -25 106
-25 108 0 10 87 -2 121 -16z m950 -232 c5 -6 9 4 9 28 0 22 4 35 10 31 13 -8
13 -82 1 -90 -5 -3 -12 -1 -16 5 -10 16 -45 12 -45 -6 0 -12 -7 -14 -32 -9
-42 9 -42 9 -28 35 7 13 19 20 33 18 24 -3 37 29 17 42 -10 6 -7 17 11 46 l24
39 3 -65 c2 -36 7 -69 13 -74z m-1521 104 c0 -11 -7 -23 -15 -27 -21 -8 -28 1
-20 26 8 27 35 27 35 1z m894 -17 c5 -11 1 -22 -10 -30 -22 -16 -23 -14 -17
20 6 31 18 35 27 10z m-1494 -65 c31 -55 42 -100 16 -65 -8 10 -24 16 -37 15
-21 -3 -24 2 -27 36 -3 37 2 66 12 66 3 0 19 -24 36 -52z m547 2 c0 -18 -6
-30 -14 -30 -16 0 -17 32 -1 48 16 16 15 17 15 -18z m997 -22 c22 -30 20 -48
-4 -48 -11 0 -20 4 -20 10 0 5 -7 7 -15 4 -11 -5 -15 1 -15 18 0 44 29 52 54
16z m148 3 c150 -64 213 -101 174 -101 -13 0 -14 -4 -5 -17 8 -14 3 -32 -28
-85 -21 -37 -42 -66 -48 -65 -11 3 -144 255 -145 275 0 16 0 15 52 -7z m-1178
-93 c24 -33 1 -51 -25 -19 -10 13 -19 27 -19 32 0 17 29 9 44 -13z m1079 0 c2
-13 8 -30 11 -39 5 -12 0 -18 -23 -22 -25 -5 -31 -12 -31 -31 0 -39 -15 -39
-33 0 -26 53 -22 64 19 64 29 0 34 3 25 13 -8 10 -7 17 1 25 17 17 25 15 31
-10z m557 -8 c0 -20 -5 -30 -15 -30 -18 0 -30 24 -21 45 10 28 36 17 36 -15z
m-1226 -50 c4 -38 11 -84 17 -102 5 -18 12 -96 15 -173 2 -77 9 -173 14 -213
13 -93 13 -162 1 -162 -5 0 -19 14 -31 30 -12 17 -28 30 -37 30 -9 0 -53 36
-99 80 -46 44 -89 80 -96 80 -17 0 -233 110 -233 119 0 12 60 126 70 133 19
15 37 3 50 -34 7 -21 29 -56 49 -78 20 -22 36 -47 36 -54 0 -32 44 -66 93 -72
56 -8 62 6 13 30 -43 20 -59 71 -30 93 27 20 55 12 73 -21 19 -34 35 -39 39
-11 5 39 -32 81 -83 94 -32 8 -51 9 -59 2 -9 -8 -23 2 -51 36 -36 43 -38 47
-20 57 10 6 33 23 50 39 18 15 39 27 47 27 7 0 45 31 83 69 39 37 73 69 76 70
4 0 9 -30 13 -69z m-421 -13 c44 9 31 -29 -14 -40 -22 -6 -28 -3 -32 14 -3 12
-10 18 -16 14 -6 -3 -11 0 -11 8 0 22 12 28 29 13 10 -9 27 -12 44 -9z m1497
-70 c12 -28 47 -94 77 -146 30 -51 52 -99 49 -106 -8 -22 -168 -106 -181 -95
-6 5 -33 52 -60 104 l-49 95 23 48 c12 26 38 76 58 111 40 73 48 72 83 -11z
m-2031 -53 c-78 -134 -79 -134 -90 -134 -6 0 -13 9 -16 20 -3 11 -11 20 -18
20 -6 0 -20 9 -30 20 -10 11 -30 20 -44 20 -39 0 -10 22 34 26 30 2 38 -1 45
-22 12 -31 28 -31 40 2 6 14 17 33 26 42 15 14 15 17 -1 28 -15 11 -15 13 4
24 12 6 21 8 21 6 0 -3 17 11 38 31 56 54 52 22 -9 -83z m186 34 c27 -46 51
-95 53 -109 3 -26 -60 -170 -82 -188 -8 -7 -39 6 -99 42 -48 28 -87 56 -87 61
0 11 106 211 132 249 11 15 22 27 26 27 4 0 30 -37 57 -82z m1946 24 c13 -10
37 -23 52 -30 36 -15 43 -36 23 -67 -9 -14 -12 -25 -6 -25 5 0 16 -13 25 -30
11 -22 23 -30 43 -30 l27 -1 -24 -19 c-13 -11 -27 -20 -31 -20 -6 0 -106 159
-147 233 -8 13 14 7 38 -11z m-441 -17 c0 -8 -4 -15 -10 -15 -5 0 -10 -6 -10
-12 0 -11 -41 -15 -79 -9 -12 2 22 26 51 37 45 16 48 16 48 -1z m-1237 -27 c5
-18 8 -19 22 -8 8 7 18 10 21 7 9 -9 -15 -45 -33 -51 -38 -11 -93 -18 -93 -12
0 4 10 25 23 46 24 44 52 52 60 18z m1297 -77 c15 -38 -2 -75 -30 -66 -10 3
-21 1 -25 -5 -3 -5 -10 -10 -16 -10 -11 0 -62 111 -54 118 3 3 10 -9 16 -26
10 -30 29 -44 29 -22 0 6 7 10 15 10 8 0 15 8 15 18 0 43 29 33 50 -17z m498
27 c-2 -6 -10 -14 -16 -16 -7 -2 -10 2 -6 12 7 18 28 22 22 4z m109 -30 c21
-17 5 -28 -25 -17 -34 13 -53 29 -47 40 6 9 51 -5 72 -23z m-1964 -60 c4 -12
4 -24 2 -26 -7 -8 -35 20 -35 34 0 23 27 16 33 -8z m1447 -105 c0 -7 -9 -13
-20 -13 -13 0 -24 -10 -30 -25 -9 -25 -30 -35 -30 -15 0 13 28 69 43 88 9 11
13 11 24 -4 7 -10 13 -24 13 -31z m-1490 -52 c0 -5 -9 -19 -20 -32 -16 -20
-19 -21 -20 -7 0 40 -40 92 -40 53 0 -8 -4 -15 -9 -15 -20 0 -19 17 0 50 l20
33 35 -37 c19 -20 34 -40 34 -45z m165 67 c14 -6 25 -14 25 -17 0 -4 28 -25
63 -48 76 -51 209 -185 271 -273 55 -78 99 -160 92 -168 -10 -9 -56 17 -56 31
0 8 -41 33 -90 57 -50 23 -93 46 -96 51 -3 5 -36 25 -74 44 -64 32 -71 39
-117 117 -100 167 -94 152 -72 187 21 35 20 35 54 19z m1125 -38 c12 -28 9
-36 -36 -113 -26 -45 -63 -110 -82 -144 -18 -35 -35 -63 -37 -63 -5 0 13 42
43 98 13 24 21 46 19 49 -5 4 -60 -84 -91 -144 -12 -24 -42 -47 -118 -89 -57
-32 -123 -70 -147 -86 -25 -15 -49 -28 -54 -28 -5 0 -7 22 -5 49 4 35 17 69
46 116 23 36 42 69 42 71 0 9 50 64 146 160 62 62 115 105 165 132 79 44 88
43 109 -8z m-1634 -56 c46 -25 84 -50 84 -55 0 -19 -91 -167 -106 -173 -25
-10 -33 2 -27 38 3 19 1 36 -6 40 -8 5 -11 -13 -11 -57 0 -45 -5 -68 -15 -77
-9 -7 -15 -29 -15 -54 0 -54 -81 -214 -198 -388 l-85 -128 -58 0 c-46 0 -59
-3 -59 -15 0 -8 -8 -15 -17 -15 -10 0 -42 -3 -70 -6 -39 -5 -53 -3 -53 6 0 7
31 65 69 129 38 64 76 130 85 146 36 65 59 101 80 122 11 12 57 90 100 175 44
84 92 171 107 193 15 22 45 68 65 103 21 34 40 62 42 62 2 0 42 -21 88 -46z
m1893 -12 c15 -32 15 -32 -23 -32 -26 0 -35 -5 -40 -22 -6 -23 -7 -23 -31 6
-13 16 -26 38 -28 48 -5 16 0 17 35 11 41 -6 41 -6 34 21 l-7 28 25 -19 c14
-10 29 -28 35 -41z m348 -12 c14 -25 67 -115 119 -202 52 -86 94 -165 94 -176
0 -11 16 -46 35 -78 19 -32 35 -61 35 -66 0 -9 68 -108 84 -123 22 -20 219
-357 231 -395 7 -22 -29 -30 -134 -30 l-76 1 -27 45 c-38 61 -36 68 13 61 23
-3 56 -3 75 0 35 6 32 16 -11 41 -19 11 -19 11 5 12 23 1 23 2 5 10 -11 5 -55
9 -97 9 -50 1 -78 5 -78 12 0 7 10 9 25 5 14 -4 25 -2 25 4 0 5 -12 10 -27 10
-16 0 -33 4 -39 8 -20 12 -177 251 -228 346 l-49 91 1 190 c1 199 -7 270 -19
180 -4 -27 -8 -71 -8 -97 -1 -27 -5 -48 -11 -48 -5 0 -10 -25 -10 -55 0 -30
-4 -55 -8 -55 -10 0 -132 225 -132 243 0 15 149 106 169 104 7 -1 24 -22 38
-47z m-1832 -56 c9 -14 14 -28 12 -31 -11 -10 -47 19 -47 37 0 28 14 25 35 -6z
m1319 -6 c9 -12 16 -28 16 -34 0 -14 -89 -69 -97 -60 -7 6 49 116 59 116 4 0
14 -10 22 -22z m-1509 -39 l35 -21 -32 -57 c-51 -91 -74 -125 -93 -141 -16
-13 -20 -11 -46 20 -33 39 -35 48 -16 74 13 17 14 16 27 -13 10 -25 17 -30 34
-25 11 3 28 13 36 21 13 13 13 16 -2 27 -10 7 -18 18 -18 24 0 6 -7 18 -16 27
-26 26 -9 28 38 4 23 -12 40 -18 36 -14 -4 5 -3 14 3 22 16 18 -6 43 -37 43
-23 0 -31 10 -17 23 11 12 31 8 68 -14z m1735 6 c0 -3 -9 -14 -20 -25 -15 -15
-25 -18 -37 -12 -13 8 -12 11 8 26 22 15 49 22 49 11z m54 -92 c14 -20 23 -40
20 -45 -9 -14 -34 -9 -34 7 0 24 -14 17 -33 -15 -21 -35 -32 -37 -47 -11 -8
16 -5 23 15 39 14 11 25 26 25 34 0 16 9 28 21 28 5 0 19 -17 33 -37z m-1656
14 c6 -7 43 -28 81 -47 46 -22 71 -40 71 -51 0 -9 9 -23 19 -30 10 -8 37 -48
59 -89 21 -41 53 -100 70 -130 18 -30 32 -64 32 -76 0 -11 7 -29 15 -40 32
-43 30 -43 -282 -37 -352 6 -387 9 -378 31 3 9 37 68 74 131 71 120 81 138
146 256 21 39 43 76 48 83 12 16 32 15 45 -1z m1540 -12 c-3 -3 -9 2 -12 12
-6 14 -5 15 5 6 7 -7 10 -15 7 -18z m-23 -141 c39 -76 91 -170 115 -209 23
-38 51 -83 61 -100 l18 -30 -282 1 -282 0 -52 27 c-29 15 -53 32 -53 38 0 14
24 59 93 177 l61 103 116 69 c63 38 119 68 124 67 5 -2 42 -66 81 -143z m195
26 c26 -51 25 -54 -8 -47 -21 4 -31 1 -41 -15 -13 -21 -13 -21 -37 8 -35 43
-31 53 18 47 36 -5 41 -4 35 11 -7 16 -2 36 8 36 3 0 14 -18 25 -40z m-1960
-59 c0 -14 -28 -33 -39 -27 -5 3 -11 2 -13 -3 -1 -5 -11 2 -21 15 l-18 24 46
0 c25 0 45 -4 45 -9z m2007 -26 c3 -9 3 -19 -1 -22 -7 -7 -36 16 -36 28 0 15
30 10 37 -6z m-1352 -23 c17 -8 43 -17 58 -18 16 -2 63 -21 105 -42 59 -29 78
-44 80 -61 3 -21 1 -23 -21 -18 -17 5 -40 -3 -82 -28 -31 -19 -63 -35 -70 -35
-6 0 -20 18 -30 41 -11 23 -32 55 -48 72 -26 28 -67 97 -67 112 0 8 37 -3 75
-23z m-712 -28 c7 -8 -10 -44 -21 -44 -4 0 -13 4 -21 9 -12 8 -12 11 0 25 15
16 31 20 42 10z m2087 2 c0 -4 -68 -46 -76 -46 -15 0 0 32 19 40 23 9 57 13
57 6z m-817 -71 c-8 -25 -19 -45 -24 -45 -16 0 -79 34 -79 42 0 15 64 48 92
48 l27 0 -16 -45z m820 -32 c-5 -13 -43 -19 -43 -6 0 3 8 15 17 25 18 20 36 7
26 -19z m-2123 18 c0 -5 -6 -14 -14 -20 -16 -13 -32 2 -21 19 8 12 35 13 35 1z
m1168 -82 c66 -32 72 -42 45 -71 -12 -13 -31 -18 -74 -18 -32 0 -61 4 -64 10
-10 16 7 110 20 110 6 0 40 -14 73 -31z m-168 -56 l0 -33 -74 0 c-59 0 -75 3
-80 16 -8 20 -10 17 32 38 18 9 37 14 42 11 5 -3 22 1 37 9 33 17 43 8 43 -41z
m-1110 7 c0 -45 -11 -51 -34 -18 -17 24 -6 58 19 58 11 0 15 -12 15 -40z
m2449 -150 l22 -40 -70 0 -71 0 0 49 c0 39 4 51 23 64 20 14 24 13 48 -9 14
-14 36 -42 48 -64z m-2509 65 c30 -17 44 -19 35 -5 -3 6 -1 10 4 10 12 0 14
-15 11 -70 -1 -19 -7 -38 -12 -41 -10 -7 -139 0 -147 8 -10 8 63 113 79 112 3
0 16 -6 30 -14z m1324 -24 c6 -9 -29 -86 -42 -95 -5 -3 -19 -2 -32 1 -21 6
-21 7 -6 18 13 10 14 18 6 40 -6 14 -8 31 -4 36 7 11 71 12 78 0z m204 -43
l-3 -53 -63 -3 c-63 -3 -63 -3 -51 20 8 14 14 18 17 10 2 -7 20 -12 43 -12 35
0 39 3 39 25 0 16 -6 25 -15 25 -15 0 -21 21 -8 33 3 4 15 7 25 7 17 0 19 -7
16 -52z m400 31 c17 -26 -1 -81 -23 -72 -12 4 -55 74 -55 88 0 3 15 5 33 5 22
0 36 -7 45 -21z m85 -4 c-1 -11 5 -24 13 -28 8 -4 14 -17 14 -27 0 -17 -7 -20
-50 -20 -55 0 -63 6 -25 20 28 11 34 47 10 56 -22 9 -7 26 18 22 15 -2 21 -9
20 -23z m121 -17 c-3 -10 0 -25 6 -33 11 -13 7 -15 -20 -15 -24 0 -31 4 -26
15 3 8 1 15 -4 15 -15 0 -12 21 7 42 20 22 47 6 37 -24z m124 17 c3 -11 10
-24 18 -28 8 -4 14 -15 14 -22 0 -11 -13 -15 -50 -15 -27 0 -50 2 -50 5 0 3 9
16 20 27 13 14 18 29 14 41 -5 14 -2 18 12 15 11 -2 20 -12 22 -23z m-2025 9
c3 -3 0 -15 -6 -26 -10 -16 -9 -21 6 -29 27 -16 20 -29 -16 -29 -40 0 -51 8
-35 27 9 11 9 17 -3 24 -12 8 -11 12 5 24 21 16 39 19 49 9z m117 -31 c0 -29
3 -34 12 -25 15 15 48 16 48 1 0 -6 13 0 29 13 15 13 26 29 23 36 -2 6 3 12
12 12 9 0 16 -6 16 -14 0 -7 7 -19 15 -26 8 -7 15 -21 15 -31 0 -18 -9 -19
-120 -19 -66 0 -120 3 -120 8 0 11 20 38 20 27 0 -5 8 5 16 23 22 42 34 41 34
-5z m263 31 c3 -3 1 -15 -6 -25 -9 -15 -8 -21 8 -33 30 -22 7 -40 -40 -32 -37
7 -37 8 -16 23 15 10 20 21 16 34 -10 30 17 53 38 33z m144 -7 c-53 -34 -54
-37 -9 -31 38 6 44 4 49 -15 6 -24 15 -26 44 -10 16 8 18 13 8 25 -9 11 -9 17
1 29 19 23 27 18 34 -19 7 -38 28 -52 47 -30 13 16 39 2 39 -22 0 -11 -25 -14
-125 -14 -79 0 -125 4 -125 10 0 7 -6 7 -19 0 -33 -17 -48 -11 -23 10 12 10
22 22 21 27 -1 4 2 18 6 31 6 17 15 22 39 21 28 0 29 -1 13 -12z m343 4 c0 -6
-4 -13 -10 -16 -5 -3 -10 -2 -10 4 0 5 -8 12 -17 14 -11 3 -7 5 10 6 15 0 27
-3 27 -8z m70 -41 c0 -35 -4 -50 -13 -50 -24 0 -27 13 -11 38 9 13 14 33 11
43 -3 10 -1 19 4 19 5 0 9 -22 9 -50z m509 19 c36 -48 24 -59 -64 -59 -50 0
-74 4 -70 10 4 6 12 10 18 8 31 -6 57 14 57 43 0 39 29 39 59 -2z m-2135 -114
c17 -9 56 -15 97 -15 38 0 69 -4 69 -8 0 -12 -80 -135 -94 -144 -16 -11 -204
-10 -210 1 -3 5 5 28 19 52 14 24 35 63 47 87 24 46 30 49 72 27z m481 -15
c13 -6 -16 -8 -80 -8 -69 0 -89 3 -65 8 49 10 121 10 145 0z m2773 -6 c-9 -9
-24 -14 -32 -11 -27 11 -17 27 16 27 30 0 31 -1 16 -16z m-2537 -5 c134 -3
140 -6 79 -41 -28 -16 -57 -27 -63 -25 -7 2 -38 -9 -70 -25 -32 -16 -62 -26
-67 -23 -22 14 -7 130 16 121 7 -3 54 -6 105 -7z m1446 -14 c5 -13 23 -15 132
-9 108 6 132 4 159 -10 18 -9 32 -22 32 -29 0 -6 24 -24 52 -38 29 -15 54 -31
56 -37 2 -6 -113 -9 -345 -8 -191 0 -388 -3 -437 -8 l-89 -9 35 64 c35 62 38
64 85 71 26 3 98 7 158 7 61 1 117 6 125 11 21 14 30 12 37 -5z m-2343 -1 c14
-5 14 -9 1 -34 -8 -16 -15 -35 -15 -43 0 -8 -8 -25 -18 -37 -17 -21 -21 -21
-60 -9 -23 6 -42 16 -42 22 0 5 10 6 23 2 54 -17 62 -16 75 5 12 20 11 25 -10
47 -23 24 -23 25 -4 39 22 16 28 17 50 8z m688 -39 c4 -101 26 -89 -169 -93
-94 -2 -174 1 -177 6 -8 14 96 120 124 125 14 2 69 5 123 6 l97 1 2 -45z m879
39 l106 -7 37 -62 c20 -34 36 -65 36 -68 0 -7 -683 1 -749 9 -42 5 -43 6 -21
21 12 8 63 37 113 63 l91 48 140 2 c78 0 189 -2 247 -6z m1359 -44 c0 -23 -5
-40 -11 -40 -15 0 -117 58 -124 71 -4 5 23 9 64 9 l71 0 0 -40z m370 -20 c33
-34 60 -63 60 -66 0 -2 -75 -3 -167 -2 l-168 3 3 30 c1 17 5 45 8 63 l5 32
100 0 100 0 59 -60z m-2987 -55 c-3 -8 -9 -15 -14 -15 -10 0 -12 24 -3 33 11
11 24 -3 17 -18z m3087 0 c0 -8 -4 -15 -10 -15 -5 0 -10 7 -10 15 0 8 5 15 10
15 6 0 10 -7 10 -15z m-1343 -90 c2 -1 -4 -10 -12 -21 -15 -19 -15 -19 -30 0
-13 17 -15 18 -21 2 -3 -9 -1 -22 5 -30 10 -12 6 -26 -10 -26 -4 0 -17 16 -30
36 -27 44 -17 53 49 46 26 -2 48 -6 49 -7z m-1520 -16 c-3 -12 0 -30 6 -40 9
-14 9 -24 1 -36 -17 -28 -34 -27 -34 1 0 16 -6 26 -15 26 -8 0 -15 6 -15 14 0
7 -7 19 -15 26 -26 21 -17 30 31 30 42 0 46 -2 41 -21z m103 10 c0 -16 -20
-49 -30 -49 -14 0 -50 42 -44 52 8 12 74 10 74 -3z m1120 -2 c0 -7 -6 -22 -14
-32 -13 -18 -15 -18 -40 -2 -41 27 -31 45 27 46 16 1 27 -4 27 -12z m-310 -7
c0 -5 -11 -10 -24 -10 -16 0 -26 -7 -29 -21 -7 -27 -27 -15 -27 17 0 21 4 24
40 24 22 0 40 -4 40 -10z"/>
<path d="M5270 6958 c0 -43 2 -78 4 -78 8 0 46 67 46 81 0 8 -11 28 -25 44
l-24 30 -1 -77z"/>
<path d="M5189 6977 c-7 -15 -8 -34 -4 -44 6 -14 10 -9 15 22 9 48 5 57 -11
22z"/>
<path d="M5359 6768 l-30 -63 81 -155 c45 -85 91 -170 102 -187 l20 -33 58 32
c32 18 56 36 54 40 -4 7 -28 12 -101 23 -32 5 -43 11 -43 25 0 19 26 30 73 30
15 0 27 3 27 7 0 9 -201 343 -206 343 -2 0 -18 -28 -35 -62z"/>
<path d="M5093 6808 c-5 -7 -27 -44 -49 -82 -21 -37 -44 -76 -49 -85 -48 -77
-85 -144 -85 -152 0 -5 7 -9 15 -9 8 0 15 -9 15 -19 0 -20 -18 -31 -50 -31
-14 0 -30 -18 -30 -35 0 -5 56 -24 90 -30 34 -6 36 -5 62 47 15 29 56 108 92
175 63 118 64 122 49 150 -9 15 -22 40 -30 56 -17 31 -17 31 -30 15z"/>
<path d="M4207 6583 c-4 -3 -7 -21 -7 -40 l0 -33 72 0 c64 0 70 2 53 13 -52
36 -112 66 -118 60z"/>
<path d="M6262 6549 c-18 -12 -32 -23 -30 -24 2 -1 20 -5 41 -8 36 -6 37 -5
37 24 0 34 -5 35 -48 8z"/>
<path d="M5290 6425 c0 -38 0 -38 24 -29 14 5 14 9 0 35 -19 38 -24 37 -24 -6z"/>
<path d="M4196 6189 l-8 -222 26 -24 c14 -13 26 -34 26 -46 0 -13 21 -41 53
-72 30 -27 58 -58 64 -69 8 -15 18 -3 66 83 32 56 57 105 57 109 0 7 -20 8
-50 3 -3 -1 -6 -22 -6 -48 -2 -54 -20 -73 -71 -73 -43 0 -52 22 -28 65 9 19
14 38 11 43 -9 14 4 42 19 42 7 0 16 17 19 38 11 56 16 72 28 72 6 0 7 -7 3
-17 -4 -10 -9 -32 -11 -48 -2 -24 2 -33 24 -43 42 -20 55 -16 48 14 -6 22 -4
25 9 20 14 -5 54 20 44 28 -22 16 -106 60 -111 58 -11 -3 -10 1 8 36 14 29 19
32 65 32 48 0 80 -17 91 -50 4 -13 58 69 58 87 0 4 -5 0 -11 -9 -14 -24 -64
-23 -100 3 -22 16 -29 28 -29 55 0 30 4 37 30 45 27 10 30 15 30 54 0 30 -5
45 -16 49 -9 3 -87 6 -173 6 l-158 0 -7 -221z"/>
<path d="M4513 6283 c-22 -8 -14 -40 13 -62 31 -24 74 -28 74 -7 0 8 9 18 20
21 24 8 17 25 -9 25 -10 0 -24 7 -31 15 -12 15 -43 18 -67 8z"/>
<path d="M4434 6139 c-15 -17 -13 -19 35 -43 51 -26 72 -32 69 -18 0 4 2 15 6
24 19 42 -76 74 -110 37z"/>
<path d="M4357 5963 c-4 -3 -7 -21 -7 -38 0 -18 -7 -38 -15 -45 -25 -21 -1
-41 34 -29 31 11 46 51 35 95 -6 23 -32 32 -47 17z"/>
<path d="M4014 6298 c30 -56 59 -104 65 -106 12 -4 15 123 5 177 -6 31 -7 31
-66 31 l-59 0 55 -102z"/>
<path d="M6103 6383 c-153 -3 -183 -6 -183 -18 0 -10 10 -15 31 -15 25 0 32
-6 45 -35 7 -19 14 -45 14 -58 0 -14 12 -32 30 -45 35 -26 38 -51 10 -75 -11
-9 -20 -26 -20 -37 0 -13 -7 -20 -20 -20 -11 0 -20 -4 -20 -10 0 -5 -7 -10
-15 -10 -8 0 -15 -6 -15 -14 0 -22 16 -28 30 -11 7 8 23 15 36 15 12 0 26 5
29 10 11 18 61 11 83 -13 26 -27 28 -52 7 -61 -8 -3 -15 -15 -15 -26 0 -12
-10 -24 -22 -30 -13 -5 -32 -16 -42 -24 -18 -15 -18 -16 -1 -42 l18 -28 18 37
c10 19 28 38 39 42 24 7 79 -3 98 -18 17 -14 35 12 61 89 18 51 21 85 21 216
0 160 -4 190 -24 186 -6 -2 -93 -4 -193 -5z"/>
<path d="M5877 6322 c-21 -23 -21 -80 -1 -107 12 -16 18 -18 34 -7 11 6 28 12
38 12 41 0 53 40 27 90 -13 24 -22 30 -49 30 -19 0 -40 -8 -49 -18z"/>
<path d="M5822 6317 c-7 -8 -7 -17 2 -30 19 -25 26 -21 26 13 0 32 -11 38 -28
17z"/>
<path d="M5976 6195 c-4 -10 -14 -13 -36 -9 -23 5 -30 3 -30 -10 0 -9 4 -16
10 -16 5 0 14 -18 20 -40 11 -39 23 -50 35 -30 3 6 15 10 26 10 14 0 19 7 19
25 0 13 8 28 17 34 17 9 16 11 -1 30 -22 24 -51 27 -60 6z"/>
<path d="M6068 6042 c-4 -15 -12 -18 -37 -14 -24 3 -31 1 -31 -12 0 -9 4 -16
8 -16 5 0 16 -19 25 -42 17 -41 17 -41 38 -22 12 10 24 18 28 16 3 -1 7 7 9
18 2 12 10 24 18 27 21 8 17 29 -11 47 -31 21 -42 20 -47 -2z"/>
<path d="M6133 5888 c-13 -21 -33 -60 -33 -65 0 -3 7 -3 15 0 8 4 17 2 20 -3
8 -13 65 -9 65 5 0 6 -5 16 -12 23 -7 7 -8 12 -2 12 6 0 15 -5 22 -12 18 -18
27 -1 14 27 -9 20 -19 25 -46 25 -19 0 -38 -6 -43 -12z"/>
<path d="M6110 5793 c0 -12 32 -63 39 -63 10 0 21 24 21 45 0 7 -13 15 -30 17
-16 3 -30 3 -30 1z"/>
<path d="M6444 6375 c-3 -8 -2 -31 3 -51 l8 -37 28 52 28 51 -31 0 c-18 0 -33
-6 -36 -15z"/>
<path d="M4747 6193 c-23 -42 -54 -90 -68 -107 -29 -35 -191 -327 -185 -333 2
-3 18 3 35 11 16 9 41 16 54 16 13 0 34 12 48 26 13 14 39 35 57 46 18 11 45
39 60 62 39 61 142 263 142 278 0 7 -23 27 -50 45 l-50 32 -43 -76z"/>
<path d="M4586 5685 c-11 -8 -32 -15 -48 -15 -23 0 -28 -4 -28 -23 0 -17 -11
-28 -45 -45 l-45 -22 15 -35 c8 -19 22 -51 30 -71 9 -20 17 -35 19 -33 10 12
87 153 109 202 27 59 26 67 -7 42z"/>
<path d="M5665 6230 c-27 -17 -54 -31 -59 -33 -9 -3 102 -223 133 -264 14 -19
236 -143 255 -143 5 0 2 10 -7 23 -8 12 -34 58 -58 102 -75 140 -194 338 -204
341 -6 2 -32 -10 -60 -26z"/>
<path d="M5097 5887 c-21 -9 -45 -40 -88 -117 -77 -136 -151 -280 -144 -280
16 0 68 42 137 110 70 70 80 85 113 171 51 131 50 129 29 129 -11 -1 -32 -6
-47 -13z"/>
<path d="M5300 5892 c0 -4 14 -63 30 -131 28 -113 81 -263 101 -285 5 -6 9
-20 9 -33 0 -14 6 -23 15 -23 8 0 15 -9 15 -20 0 -13 -7 -20 -20 -20 -13 0
-20 7 -20 19 0 10 -6 21 -14 24 -13 5 -72 120 -106 205 -7 17 -16 32 -21 32
-5 0 -10 -71 -10 -157 -1 -87 -3 -185 -4 -218 -2 -33 -6 -139 -10 -235 l-7
-175 64 68 c35 37 70 67 77 67 16 0 71 38 71 50 0 4 -13 13 -30 18 -29 11 -49
50 -35 71 3 6 -2 11 -13 11 -20 0 -42 37 -42 70 0 39 91 90 162 90 24 0 29 8
57 80 17 43 31 95 31 114 0 23 -21 71 -66 152 -107 193 -119 209 -163 222 -44
14 -71 15 -71 4z"/>
<path d="M5670 5299 c-13 -24 -35 -59 -51 -79 -15 -19 -31 -48 -35 -65 l-7
-30 24 21 c13 12 52 36 87 54 34 18 62 33 62 34 0 2 -13 27 -29 56 l-29 53
-22 -44z"/>
<path d="M5447 5198 l-17 -29 28 3 c19 2 28 9 30 24 5 34 -22 35 -41 2z"/>
<path d="M4190 5680 c0 -5 5 -10 11 -10 5 0 7 5 4 10 -3 6 -8 10 -11 10 -2 0
-4 -4 -4 -10z"/>
<path d="M5914 5661 c9 -13 137 -84 142 -78 5 4 -131 87 -142 87 -3 0 -3 -4 0
-9z"/>
<path d="M5920 5615 c0 -13 81 -165 88 -165 7 0 52 79 52 92 0 6 -125 78 -135
78 -3 0 -5 -2 -5 -5z"/>
<path d="M5745 5530 c3 -5 8 -10 11 -10 2 0 4 5 4 10 0 6 -5 10 -11 10 -5 0
-7 -4 -4 -10z"/>
<path d="M5066 5501 c-27 -28 -63 -56 -80 -63 -17 -6 -37 -18 -44 -25 -8 -7
-22 -18 -33 -24 -19 -10 -19 -11 3 -38 19 -23 34 -30 82 -35 44 -6 64 -13 82
-33 48 -52 46 -106 -4 -111 -26 -3 -32 0 -32 16 0 11 -6 25 -14 31 -15 12 -46
5 -46 -11 0 -18 21 -48 34 -48 20 0 49 -37 43 -55 -4 -9 -19 -15 -39 -15 l-32
0 64 -65 c35 -36 71 -65 79 -65 8 0 23 -8 34 -17 20 -18 20 -17 12 97 -4 63
-11 171 -16 240 -8 131 -28 270 -39 270 -3 0 -28 -22 -54 -49z"/>
<path d="M4748 5275 l-28 -55 89 -43 89 -43 -9 30 c-5 16 -21 42 -37 57 -15
15 -37 46 -48 68 -10 22 -21 41 -24 40 -3 0 -17 -24 -32 -54z"/>
<path d="M6129 5388 c-24 -45 -43 -87 -41 -93 10 -33 86 -175 94 -175 8 0 132
65 147 76 2 2 -22 46 -53 98 -31 52 -56 99 -56 104 0 14 -33 72 -41 72 -3 0
-26 -37 -50 -82z"/>
<path d="M4292 5438 c-44 -71 -103 -198 -98 -207 4 -5 36 -26 73 -46 l66 -38
18 24 c10 13 19 31 19 39 0 8 9 29 20 45 11 17 20 39 20 49 0 20 -80 166 -92
166 -3 0 -15 -15 -26 -32z"/>
<path d="M6350 5405 c0 -16 22 -45 31 -40 15 10 11 23 -11 35 -11 6 -20 8 -20
5z"/>
<path d="M4606 5385 c-3 -9 0 -15 9 -15 16 0 20 16 6 24 -5 3 -11 -1 -15 -9z"/>
<path d="M5910 5324 c0 -7 -9 -14 -20 -17 -25 -7 -26 -27 -1 -27 26 0 42 22
31 40 -6 8 -10 10 -10 4z"/>
<path d="M4671 5142 c-8 -15 3 -41 50 -125 59 -105 61 -107 132 -147 40 -21
79 -44 87 -50 25 -18 155 -78 159 -74 3 2 -4 14 -15 27 -11 12 -36 47 -57 78
-47 71 -185 206 -259 253 -31 19 -59 40 -63 46 -9 15 -23 12 -34 -8z"/>
<path d="M5740 5133 c-75 -44 -177 -130 -231 -196 -28 -34 -56 -67 -62 -72
-19 -17 -107 -177 -107 -195 0 -18 18 -11 107 39 170 95 165 92 218 183 26 46
57 89 69 94 11 5 35 35 53 66 29 50 32 60 21 82 -6 14 -14 26 -17 26 -3 0 -26
-12 -51 -27z"/>
<path d="M4077 5036 c-21 -36 -41 -66 -45 -68 -10 -4 -69 -103 -77 -129 -12
-35 -126 -241 -150 -269 -20 -24 -89 -137 -150 -245 -15 -27 -36 -65 -47 -82
l-20 -33 45 0 c36 0 46 4 50 20 4 17 14 20 64 20 l58 0 82 123 c75 112 105
163 180 312 6 12 14 44 18 72 4 29 13 57 21 64 9 7 14 32 14 70 0 52 2 59 20
59 16 0 20 -7 20 -35 0 -47 15 -44 41 8 12 23 31 55 41 70 11 16 19 29 17 31
-8 7 -136 76 -140 76 -3 0 -22 -29 -42 -64z"/>
<path d="M6321 5041 c-35 -20 -63 -40 -63 -44 1 -14 87 -177 93 -177 3 0 11
46 18 103 6 56 16 114 21 130 4 15 5 27 2 26 -4 0 -36 -17 -71 -38z"/>
<path d="M6437 4891 c-10 -176 -2 -228 56 -339 27 -54 57 -106 67 -117 10 -11
34 -45 54 -75 79 -121 91 -135 129 -144 20 -5 37 -15 37 -23 0 -9 19 -13 70
-13 l70 0 -26 53 c-28 55 -169 262 -185 272 -5 4 -9 14 -9 23 0 10 -16 42 -35
72 -19 30 -35 64 -35 76 0 17 -151 284 -180 317 -4 4 -10 -41 -13 -102z"/>
<path d="M6920 4150 c0 -10 7 -23 16 -28 9 -5 14 -17 12 -28 -3 -16 -14 -19
-68 -22 -35 -1 -66 -4 -68 -7 -2 -2 6 -18 18 -35 20 -29 27 -32 59 -26 20 3
55 6 79 6 23 0 42 4 42 9 0 11 -80 151 -86 151 -2 0 -4 -9 -4 -20z"/>
<path d="M5895 4969 c-10 -15 3 -25 16 -12 7 7 7 13 1 17 -6 3 -14 1 -17 -5z"/>
<path d="M4396 4649 c-69 -121 -126 -222 -126 -224 0 -11 101 -17 336 -20
l272 -4 -8 32 c-8 35 -21 63 -98 207 -28 52 -60 101 -72 108 -11 7 -20 18 -20
26 0 8 -21 24 -47 37 -27 12 -60 31 -75 41 -14 10 -28 18 -31 18 -3 0 -62 -99
-131 -221z"/>
<path d="M5879 4794 c-118 -70 -123 -74 -171 -159 -22 -38 -50 -88 -64 -110
-13 -22 -24 -45 -24 -52 0 -6 20 -23 44 -37 l45 -26 255 0 c141 0 256 4 256 9
0 4 -8 19 -18 32 -26 34 -148 251 -179 319 -9 19 -20 45 -26 58 -6 12 -13 22
-17 22 -3 0 -49 -25 -101 -56z"/>
<path d="M4920 4636 c0 -3 17 -25 38 -49 21 -24 44 -58 51 -75 15 -37 32 -40
71 -12 15 11 40 25 56 31 l29 11 -65 33 c-36 19 -76 34 -90 35 -14 0 -36 7
-50 15 -26 15 -40 18 -40 11z"/>
<path d="M5461 4561 c-9 -6 -10 -11 -2 -15 13 -8 31 1 31 15 0 11 -11 11 -29
0z"/>
<path d="M5310 4425 c0 -34 1 -35 38 -35 35 0 72 14 62 23 -8 7 -88 47 -95 47
-3 0 -5 -16 -5 -35z"/>
<path d="M5099 4413 c-13 -15 -12 -15 9 -4 23 12 28 21 13 21 -5 0 -15 -7 -22
-17z"/>
<path d="M5155 4407 c-13 -10 -15 -16 -6 -21 17 -11 41 0 41 19 0 19 -11 19
-35 2z"/>
<path d="M6457 4303 c-13 -12 -7 -64 7 -69 8 -3 29 -4 47 -2 l33 3 -33 38
c-33 37 -42 42 -54 30z"/>
<path d="M3993 4283 c-35 -40 -30 -53 20 -53 70 0 90 37 35 64 -17 9 -32 16
-32 15 -1 0 -11 -12 -23 -26z"/>
<path d="M5310 4281 c0 -6 5 -13 10 -16 6 -3 10 1 10 9 0 9 -4 16 -10 16 -5 0
-10 -4 -10 -9z"/>
<path d="M5928 4294 c-8 -7 13 -44 24 -44 12 0 10 14 -5 34 -7 9 -16 14 -19
10z"/>
<path d="M4505 4240 c-3 -5 1 -10 10 -10 9 0 13 5 10 10 -3 6 -8 10 -10 10 -2
0 -7 -4 -10 -10z"/>
<path d="M4787 4234 c-9 -10 2 -24 19 -24 8 0 14 7 14 15 0 15 -21 21 -33 9z"/>
<path d="M5680 4250 c0 -11 6 -20 14 -20 9 0 12 7 9 20 -3 11 -9 20 -14 20 -5
0 -9 -9 -9 -20z"/>
<path d="M3543 4128 c-5 -7 -24 -39 -42 -70 l-32 -58 89 0 90 0 36 58 35 57
-67 6 c-37 3 -74 9 -83 13 -9 4 -20 1 -26 -6z"/>
<path d="M4208 4104 c-5 -4 -8 -20 -8 -36 l0 -28 40 20 c21 11 50 20 62 20 13
0 30 5 38 10 12 8 9 10 -11 10 -14 0 -46 3 -70 6 -24 3 -47 2 -51 -2z"/>
<path d="M5470 4082 c-64 -3 -65 -3 -88 -43 -13 -23 -22 -41 -20 -42 2 -1 172
0 378 3 329 4 372 7 350 19 -14 8 -35 25 -47 38 -18 19 -32 23 -80 23 -32 1
-141 2 -243 3 -102 2 -214 1 -250 -1z"/>
<path d="M3824 4048 l-39 -43 135 -3 c74 -1 140 0 147 2 14 6 17 43 7 70 -5
13 -24 16 -109 16 l-103 0 -38 -42z"/>
<path d="M4521 4055 c-36 -19 -69 -39 -73 -43 -8 -8 652 -24 660 -17 2 2 -7
21 -19 43 -21 36 -28 40 -74 46 -27 3 -135 6 -240 6 l-190 0 -64 -35z"/>
<path d="M6288 4073 c7 -3 16 -2 19 1 4 3 -2 6 -13 5 -11 0 -14 -3 -6 -6z"/>
<path d="M6508 4082 c-43 -3 -48 -6 -48 -27 0 -13 -3 -30 -6 -39 -5 -14 9 -16
120 -16 69 0 126 4 126 8 0 4 -15 23 -34 41 -37 36 -59 40 -158 33z"/>
<path d="M3896 3875 c4 -8 8 -15 10 -15 2 0 4 7 4 15 0 8 -4 15 -10 15 -5 0
-7 -7 -4 -15z"/>
<path d="M4000 3879 c0 -5 5 -7 10 -4 6 3 10 8 10 11 0 2 -4 4 -10 4 -5 0 -10
-5 -10 -11z"/>
<path d="M8396 8445 c81 -193 108 -349 101 -585 -9 -284 -67 -471 -210 -678
-45 -66 -48 -74 -35 -90 9 -9 25 -35 36 -57 11 -22 61 -121 111 -220 50 -99
98 -198 106 -220 8 -22 25 -67 38 -100 13 -33 36 -92 51 -132 17 -45 34 -74
46 -78 10 -3 51 3 92 14 146 40 254 71 328 95 41 13 111 34 155 46 44 13 127
37 185 55 58 18 117 35 133 39 42 10 40 51 -10 186 -19 52 -40 115 -47 140
-16 55 -43 114 -157 345 -137 276 -260 486 -329 562 -21 22 -49 61 -61 85 -12
23 -33 57 -48 75 -14 17 -42 53 -61 79 -58 78 -157 188 -303 338 -119 121
-136 135 -121 101z"/>
<path d="M5100 7310 c-11 -21 -20 -41 -20 -44 0 -12 64 -35 75 -26 6 5 20 7
31 4 10 -3 27 1 38 9 15 11 17 17 7 35 -6 12 -19 22 -29 22 -9 0 -28 9 -42 20
-14 11 -28 20 -32 20 -4 0 -17 -18 -28 -40z"/>
<path d="M5300 7298 c-26 -42 -25 -54 3 -62 41 -11 66 -6 92 18 22 20 24 28
16 44 -24 44 -84 44 -111 0z"/>
<path d="M5034 7196 c-9 -38 4 -68 27 -61 14 5 21 0 29 -19 11 -30 40 -35 40
-7 0 10 11 30 25 45 14 15 25 29 25 31 0 2 -13 10 -29 18 -20 10 -34 11 -46 4
-13 -7 -24 -6 -36 2 -26 15 -28 14 -35 -13z"/>
<path d="M5178 7213 c7 -3 16 -2 19 1 4 3 -2 6 -13 5 -11 0 -14 -3 -6 -6z"/>
<path d="M5300 7203 c0 -5 9 -21 20 -38 l20 -30 0 38 c0 30 -4 37 -20 37 -11
0 -20 -3 -20 -7z"/>
<path d="M2331 7122 c-220 -338 -367 -675 -479 -1097 -36 -134 -82 -426 -82
-515 l0 -61 58 3 57 3 7 60 c27 241 40 317 84 495 62 252 129 433 252 690 31
63 110 205 170 303 23 37 42 71 42 75 0 8 -73 82 -80 82 -3 0 -16 -17 -29 -38z"/>
<path d="M8135 7000 l-40 -41 19 -32 c49 -81 186 -349 186 -363 0 -5 8 -25 19
-44 10 -19 33 -75 50 -125 18 -49 36 -99 41 -110 61 -147 139 -511 163 -755 2
-22 8 -26 52 -32 73 -11 76 -9 69 64 -18 204 -83 511 -156 733 -45 138 -139
361 -203 485 -96 183 -108 206 -127 233 -11 15 -23 27 -27 27 -4 0 -25 -18
-46 -40z"/>
<path d="M4915 6980 c-8 -9 -15 -23 -15 -31 0 -8 -12 -27 -26 -42 -23 -25 -25
-32 -14 -52 20 -37 55 -51 88 -35 15 8 29 16 31 17 3 2 -5 13 -16 26 -11 12
-24 32 -28 45 -5 17 -2 22 12 22 11 0 28 -7 39 -15 27 -20 31 -19 38 16 4 21
1 36 -11 47 -22 22 -79 23 -98 2z"/>
<path d="M5521 6944 c-39 -65 -23 -94 51 -94 49 0 57 7 36 28 -9 9 -9 15 0 24
18 18 15 25 -18 37 -16 5 -30 17 -30 25 0 27 -17 18 -39 -20z"/>
<path d="M6433 6885 c3 -31 7 -59 9 -60 2 -2 27 4 56 13 l53 18 -62 43 -62 44
6 -58z"/>
<path d="M5460 6916 c0 -8 5 -18 10 -21 6 -3 10 3 10 14 0 12 -4 21 -10 21 -5
0 -10 -6 -10 -14z"/>
<path d="M4980 6881 c1 -9 26 -41 32 -41 3 0 8 9 11 19 3 14 -2 20 -19 24 -13
2 -24 1 -24 -2z"/>
<path d="M4827 6830 c-26 -79 -11 -105 56 -95 26 4 50 11 53 17 9 14 -16 38
-39 38 -12 0 -31 12 -43 28 -17 21 -24 24 -27 12z"/>
<path d="M5516 6818 c19 -33 27 -38 40 -27 24 20 16 39 -17 39 -21 0 -28 -4
-23 -12z"/>
<path d="M5577 6788 c-12 -21 -15 -34 -8 -36 6 -2 18 -17 26 -33 17 -32 39
-36 92 -17 42 15 42 30 1 46 -31 11 -31 12 -13 32 20 22 17 24 -45 34 -32 5
-37 3 -53 -26z"/>
<path d="M4960 6795 c-8 -9 -8 -15 -2 -15 12 0 26 19 19 26 -2 2 -10 -2 -17
-11z"/>
<path d="M946 6718 c-27 -44 -108 -319 -157 -533 -42 -187 -40 -175 -68 -405
-5 -36 -11 -72 -14 -80 -10 -25 -21 -315 -20 -515 0 -270 22 -549 51 -649 7
-27 8 -26 21 25 38 151 115 317 201 430 61 82 198 212 276 265 116 77 252 135
411 174 l41 10 6 58 c19 210 26 267 44 347 12 50 26 117 32 150 11 57 40 162
81 289 22 69 24 111 7 123 -7 4 -33 15 -58 25 -25 9 -88 33 -140 53 -52 20
-131 49 -175 65 -44 16 -123 45 -175 65 -52 20 -113 43 -135 52 -22 8 -53 21
-70 29 -43 19 -115 44 -131 44 -7 0 -20 -10 -28 -22z"/>
<path d="M4780 6732 c-32 -15 -14 -140 18 -127 8 3 19 5 26 5 6 0 19 13 29 29
16 27 16 29 -2 34 -10 2 -21 17 -24 36 -6 31 -18 36 -47 23z"/>
<path d="M4873 6713 c-29 -6 -29 -19 -1 -26 22 -6 48 7 48 24 0 9 -8 10 -47 2z"/>
<path d="M5716 6681 c-4 -6 -18 -8 -32 -5 -13 3 -24 2 -25 -2 0 -5 -2 -23 -5
-41 -3 -25 1 -35 16 -43 11 -6 17 -16 14 -25 -4 -10 0 -15 15 -15 12 0 21 6
21 15 0 11 8 15 28 13 25 -3 27 0 30 34 3 30 -1 39 -20 49 -13 7 -26 16 -29
22 -4 5 -9 5 -13 -2z"/>
<path d="M5620 6661 c0 -6 5 -13 10 -16 6 -3 10 1 10 9 0 9 -4 16 -10 16 -5 0
-10 -4 -10 -9z"/>
<path d="M4808 6583 c-22 -6 -23 -22 -2 -30 15 -5 33 11 34 30 0 7 -4 7 -32 0z"/>
<path d="M9470 6415 c-96 -30 -173 -52 -365 -107 -38 -11 -113 -33 -165 -48
-52 -16 -122 -36 -155 -45 -121 -34 -128 -43 -99 -145 8 -30 19 -80 24 -110 5
-30 15 -77 20 -105 15 -68 40 -236 47 -312 l5 -63 42 -10 c147 -37 315 -116
428 -200 154 -116 297 -305 367 -485 41 -104 81 -283 81 -361 0 -28 4 -43 10
-39 6 3 10 21 10 40 0 18 4 55 10 82 36 184 52 392 53 698 0 318 -24 558 -95
935 -18 97 -49 223 -63 256 -22 54 -38 56 -155 19z"/>
<path d="M8403 5449 c-495 -58 -894 -436 -982 -933 -14 -76 -14 -292 -1 -374
42 -257 195 -520 396 -682 144 -115 278 -181 464 -228 88 -22 128 -26 250 -26
84 0 170 5 205 13 92 20 215 61 215 71 0 16 -184 253 -188 241 -2 -6 8 -32 23
-57 44 -75 21 -61 -41 25 -52 72 -61 80 -84 74 -40 -9 -40 -10 -40 -99 0 -54
-4 -83 -10 -79 -5 3 -10 21 -10 38 0 24 -3 28 -10 17 -12 -20 -16 -14 -26 50
-8 51 -11 55 -39 58 -61 6 -135 24 -135 33 0 5 10 9 23 10 16 0 12 5 -20 19
-55 24 -58 45 -5 35 89 -17 157 -22 165 -11 8 11 1 81 -9 98 -3 4 -19 8 -35 8
-40 0 -100 26 -97 42 2 7 -8 14 -22 16 -22 2 -35 -12 -100 -112 -41 -63 -78
-112 -82 -109 -5 2 -3 13 3 24 21 40 1 29 -35 -18 -37 -49 -106 -111 -106 -95
0 4 31 55 69 113 38 57 65 105 60 107 -12 5 4 35 52 99 47 63 45 86 -13 152
-74 85 -127 224 -129 336 0 57 -2 66 -11 48 -8 -16 -6 -48 6 -118 19 -114 45
-181 98 -252 53 -73 23 -70 -36 3 -89 109 -121 336 -70 497 l18 58 -46 46
c-26 26 -51 43 -57 39 -20 -13 -62 -106 -82 -184 -11 -45 -19 -109 -19 -159 0
-45 -4 -83 -9 -83 -18 0 -21 134 -6 225 9 50 20 119 25 155 5 36 14 79 21 96
11 29 10 35 -27 90 -22 32 -44 66 -49 75 -6 9 -23 33 -39 53 -16 20 -26 40
-22 44 7 6 55 -42 256 -255 98 -104 89 -90 -34 54 -48 57 -86 107 -84 113 5
14 15 5 123 -119 l100 -113 30 38 c57 73 110 116 200 160 93 45 193 74 257 74
52 0 56 -17 6 -25 -89 -15 -308 -98 -295 -112 2 -2 33 10 69 27 97 45 264 73
243 41 -3 -5 4 -12 15 -16 31 -10 13 -25 -30 -25 -42 0 -189 -43 -227 -66 -81
-49 -78 -47 -59 -54 15 -5 11 -10 -23 -33 -46 -31 -104 -104 -97 -123 3 -7 -6
-43 -19 -81 -45 -127 -27 -280 47 -393 18 -28 38 -50 45 -50 7 0 22 -13 35
-30 12 -16 29 -30 39 -30 9 0 36 -9 60 -20 43 -19 44 -19 63 0 17 17 18 26 10
76 l-9 57 -53 17 c-58 19 -112 65 -143 120 -19 34 -19 29 -2 -30 3 -10 -1 -8
-11 4 -8 11 -23 44 -32 75 -24 84 -12 195 33 280 34 67 60 101 74 101 5 0 6
-7 2 -16 -3 -9 21 4 53 30 79 61 155 87 271 94 73 4 103 1 138 -12 63 -25 159
-98 191 -146 37 -56 23 -62 -15 -7 -50 73 -173 138 -259 136 -36 0 -36 -1 16
-15 29 -7 67 -21 84 -30 42 -22 133 -117 166 -174 25 -42 27 -53 27 -172 0
-69 3 -124 8 -121 16 10 6 -14 -13 -30 -24 -20 -26 -39 -3 -30 11 4 14 3 9 -5
-4 -7 -14 -12 -21 -12 -18 0 -37 -34 -29 -53 3 -8 1 -18 -5 -22 -6 -3 -11 -14
-11 -24 0 -28 -72 -104 -126 -133 -27 -15 -71 -32 -99 -38 -27 -7 -56 -14 -63
-16 -8 -2 -1 -22 25 -63 l37 -59 45 2 c26 2 55 7 66 11 19 8 20 8 2 -12 -10
-12 -32 -27 -48 -33 -16 -7 -28 -15 -26 -19 16 -29 37 -84 34 -88 -3 -2 -19
14 -37 37 -45 57 -50 42 -7 -19 20 -28 66 -94 103 -148 37 -54 70 -102 74
-107 5 -4 43 10 87 33 219 115 400 314 502 553 234 548 -5 1188 -543 1448
-204 99 -407 134 -623 109z m399 -111 c1 -24 1 -69 -1 -102 -2 -40 1 -56 8
-52 8 5 11 -36 11 -139 0 -115 3 -147 14 -151 8 -3 12 -13 10 -22 -3 -13 10
-23 51 -41 30 -13 75 -41 99 -62 55 -49 72 -51 26 -4 -25 25 -29 35 -17 35 28
0 113 -102 105 -128 -2 -4 6 -25 17 -45 19 -36 13 -68 -7 -33 -23 40 -139 152
-190 183 -29 18 -77 38 -105 46 -76 19 -93 42 -92 119 2 103 13 183 25 181 8
-1 14 41 19 127 4 72 11 130 16 130 5 0 10 -19 11 -42z m115 -483 l28 -26 -37
22 c-38 21 -46 29 -29 29 6 0 23 -11 38 -25z m313 -364 c27 -39 50 -106 50
-145 -1 -28 -2 -29 -14 -13 -7 9 -18 17 -24 17 -11 0 -40 83 -39 115 0 11 -3
28 -8 38 -12 28 12 20 35 -12z m-101 -113 c11 -40 21 -79 21 -85 0 -7 7 -13
16 -13 11 0 14 -8 12 -32 -2 -20 -8 -32 -15 -30 -9 1 -13 -14 -13 -50 0 -61
-8 -98 -21 -98 -5 0 -9 48 -9 108 -1 59 -7 136 -15 172 -17 76 -18 100 -6 100
4 0 18 -33 30 -72z m-22 -180 c-3 -8 -6 -5 -6 6 -1 11 2 17 5 13 3 -3 4 -12 1
-19z m-1172 -58 c0 -7 -6 -15 -12 -17 -8 -3 -13 4 -13 17 0 13 5 20 13 18 6
-3 12 -11 12 -18z m41 -107 c16 -21 18 -53 4 -53 -12 0 -41 55 -33 64 10 9 15
7 29 -11z m345 -376 c-13 -13 -26 -3 -16 12 3 6 11 8 17 5 6 -4 6 -10 -1 -17z
m594 -193 c9 -14 14 -29 10 -32 -6 -7 -44 36 -45 51 0 16 19 6 35 -19z"/>
<path d="M1720 5395 c-153 -28 -318 -96 -455 -188 -92 -61 -262 -239 -318
-333 -64 -109 -112 -222 -144 -341 -22 -86 -26 -119 -27 -263 0 -147 2 -176
26 -271 111 -441 436 -758 881 -860 122 -28 335 -31 455 -5 532 113 906 546
929 1077 9 210 -30 388 -128 579 -62 122 -128 208 -233 307 -168 159 -354 253
-587 298 -99 18 -296 18 -399 0z m420 -222 c0 -15 -109 -318 -126 -352 -15
-30 -16 -56 -12 -205 6 -176 2 -221 -19 -208 -7 4 -16 60 -23 137 -8 85 -20
154 -36 198 l-23 69 30 66 c16 36 28 70 26 75 -4 13 -223 -221 -260 -277 -19
-30 -26 -50 -20 -59 4 -8 36 -36 70 -61 54 -41 105 -103 141 -173 8 -14 25
-23 54 -28 61 -10 84 -28 114 -88 14 -28 34 -60 43 -71 9 -10 16 -30 16 -44 0
-33 28 -41 41 -12 13 28 108 150 173 221 30 32 84 79 120 104 62 42 71 45 149
49 45 2 82 2 82 -2 0 -4 -35 -20 -77 -37 -78 -30 -87 -38 -191 -155 -54 -61
-172 -214 -172 -224 0 -3 7 -6 15 -6 27 0 86 -63 121 -129 46 -88 89 -123 160
-129 41 -3 54 -1 54 9 0 11 2 11 10 -1 18 -27 11 -56 -15 -68 -14 -6 -25 -16
-25 -22 0 -14 -46 -12 -62 3 -14 13 -86 57 -94 57 -3 0 -2 -6 2 -12 4 -7 -5
-2 -20 12 -15 14 -39 45 -53 70 -50 87 -72 118 -102 139 l-30 22 -57 -97 c-31
-53 -76 -144 -99 -203 -53 -131 -63 -170 -31 -111 14 25 25 42 26 38 1 -16
-62 -224 -71 -232 -5 -6 -9 3 -10 25 l0 34 -16 -32 c-9 -18 -20 -33 -25 -33
-4 0 -8 -7 -8 -15 0 -23 -15 -18 -30 10 -7 13 -21 27 -30 30 -17 5 -40 74 -74
217 -17 76 -111 277 -150 323 l-25 30 -42 -40 c-22 -22 -52 -62 -66 -90 -38
-75 -76 -118 -126 -143 -45 -22 -117 -30 -117 -12 0 6 -6 10 -14 10 -18 0 -46
27 -46 43 0 7 4 18 9 26 7 11 13 9 30 -8 29 -29 61 -26 117 12 42 28 56 46 94
126 29 59 58 103 80 121 l34 27 -40 49 c-21 27 -62 76 -91 110 -56 65 -63 77
-36 67 12 -5 10 2 -8 26 -25 34 -109 101 -127 101 -6 0 -12 4 -14 8 -1 4 -21
19 -43 32 -46 29 -26 42 24 16 37 -20 39 -20 43 1 2 12 25 -3 88 -58 47 -41
104 -89 128 -107 23 -19 65 -65 93 -103 28 -38 55 -66 59 -64 5 3 21 25 37 50
29 47 49 59 40 25 -7 -29 6 -25 26 8 22 38 77 92 94 92 7 0 13 4 13 9 0 19
-136 149 -177 170 -23 11 -49 31 -57 43 -20 28 -21 101 -2 118 8 6 12 18 9 26
-11 30 339 347 471 425 20 11 36 25 36 30 0 5 5 9 10 9 6 0 10 -3 10 -7z"/>
<path d="M1936 4153 c-14 -314 -18 -368 -29 -382 -14 -16 -18 26 -36 318 -6
96 -12 176 -15 178 -2 3 -23 -12 -45 -32 -28 -25 -41 -46 -41 -63 0 -16 -14
-38 -40 -63 l-40 -38 49 -98 c53 -104 137 -312 147 -363 4 -17 10 -32 13 -35
4 -2 18 39 30 91 13 51 33 109 45 126 12 18 35 65 51 103 16 39 37 86 46 105
17 34 17 35 -6 60 -13 14 -38 65 -54 114 -28 81 -42 105 -63 106 -4 0 -9 -57
-12 -127z"/>
<path d="M3901 5199 c-13 -5 -20 -14 -17 -21 3 -7 9 -20 12 -30 7 -20 38 -29
75 -21 26 5 27 6 14 36 -14 35 -48 49 -84 36z"/>
<path d="M6570 5165 c0 -13 -7 -15 -35 -9 -41 7 -48 -11 -15 -39 11 -9 20 -26
20 -36 0 -23 22 -40 28 -23 2 7 12 12 23 12 13 0 19 7 19 24 0 16 7 27 20 31
27 8 25 19 -5 39 -31 20 -55 21 -55 1z"/>
<path d="M3836 5115 c-19 -19 -19 -25 -7 -57 11 -28 -12 -64 -44 -70 -15 -3
-19 -11 -18 -33 1 -16 -2 -34 -8 -41 -7 -8 -7 -14 1 -19 19 -11 -1 -27 -27
-20 -24 6 -52 -14 -53 -38 0 -7 110 -61 114 -55 1 2 7 15 14 30 10 24 9 29 -8
38 -33 18 -24 38 17 42 51 4 68 36 45 84 -8 19 -13 36 -10 39 2 3 24 6 47 7
41 1 42 2 37 32 -3 17 -10 32 -15 34 -6 2 -11 10 -11 18 0 23 -18 16 -35 -13
-13 -22 -15 -24 -12 -7 7 34 -7 49 -27 29z m64 -49 c0 -3 -4 -8 -10 -11 -5 -3
-10 -1 -10 4 0 6 5 11 10 11 6 0 10 -2 10 -4z"/>
<path d="M3957 5080 c3 -12 6 -19 7 -18 1 2 8 11 15 21 12 15 11 17 -7 17 -15
0 -19 -5 -15 -20z"/>
<path d="M6613 5048 c-6 -7 -13 -29 -16 -49 -6 -43 22 -90 45 -73 7 6 23 11
36 12 28 1 52 19 52 39 0 8 -7 30 -16 49 -14 30 -21 34 -54 34 -21 0 -42 -6
-47 -12z"/>
<path d="M6571 5014 c0 -11 3 -14 6 -6 3 7 2 16 -1 19 -3 4 -6 -2 -5 -13z"/>
<path d="M3886 4991 c-7 -11 3 -41 13 -41 4 0 13 11 19 25 10 22 9 25 -8 25
-10 0 -21 -4 -24 -9z"/>
<path d="M6713 4922 c-3 -13 -11 -18 -24 -15 -10 3 -26 3 -35 -1 -14 -5 -13
-9 5 -32 12 -15 21 -32 21 -38 0 -6 4 -17 8 -24 12 -19 72 14 72 39 0 11 7 22
15 25 8 4 15 12 15 18 0 11 -12 19 -63 44 -5 2 -11 -5 -14 -16z"/>
<path d="M3820 4860 c19 -13 30 -13 30 0 0 6 -10 10 -22 10 -19 0 -20 -2 -8
-10z"/>
<path d="M6768 4803 c-18 -3 -28 -11 -28 -21 0 -9 -3 -27 -6 -38 -4 -16 0 -23
15 -27 14 -3 18 -10 14 -26 -6 -25 18 -29 37 -7 6 8 21 16 33 18 17 2 23 11
25 39 3 33 -1 39 -29 53 -18 9 -33 15 -33 15 -1 -1 -13 -4 -28 -6z"/>
<path d="M3656 4745 c6 -33 5 -35 -21 -35 -23 0 -25 -3 -19 -22 20 -66 21 -67
61 -64 27 3 37 8 35 19 -1 8 5 20 13 27 29 24 15 59 -37 93 -37 23 -40 22 -32
-18z"/>
<path d="M6700 4770 c0 -5 5 -10 10 -10 6 0 10 5 10 10 0 6 -4 10 -10 10 -5 0
-10 -4 -10 -10z"/>
<path d="M6856 4675 c-3 -9 -18 -15 -36 -15 -20 0 -30 -5 -30 -15 0 -8 4 -15
8 -15 5 0 16 -18 25 -40 l15 -39 31 15 c19 10 31 23 31 36 0 11 8 22 20 25 27
7 25 17 -6 42 -32 25 -50 27 -58 6z"/>
<path d="M8585 4623 c-113 -41 -165 -87 -212 -187 -14 -30 -15 -40 -5 -43 17
-6 15 -63 -3 -106 -22 -54 -19 -70 25 -128 40 -54 89 -89 122 -89 16 0 18 12
18 116 0 88 -3 115 -12 112 -20 -7 -38 -49 -38 -88 -1 -30 -2 -32 -11 -16 -19
31 -4 95 30 130 25 26 31 41 32 76 1 52 12 89 22 73 5 -8 15 -8 34 2 36 19
115 9 175 -21 54 -27 62 -29 53 -11 -4 6 7 -2 24 -20 38 -41 55 -101 46 -167
-10 -72 -27 -107 -76 -159 -37 -38 -54 -47 -104 -57 -33 -7 -66 -14 -73 -16
-9 -3 -12 -19 -10 -51 l3 -48 55 -3 c122 -7 249 80 311 213 29 60 31 72 27
148 -11 202 -137 344 -313 354 -50 2 -84 -2 -120 -14z m95 -23 c0 -5 -15 -12
-32 -15 -54 -12 -184 -82 -205 -111 -30 -40 -50 -26 -21 15 30 43 118 97 188
115 55 14 70 13 70 -4z m80 -30 c0 -5 -4 -10 -10 -10 -5 0 -10 5 -10 10 0 6 5
10 10 10 6 0 10 -4 10 -10z m141 -37 c18 -21 67 -103 53 -88 -44 45 -104 126
-88 117 10 -5 26 -18 35 -29z m89 -143 c0 -5 -2 -10 -4 -10 -3 0 -8 5 -11 10
-3 6 -1 10 4 10 6 0 11 -4 11 -10z m-509 -54 c-12 -13 -29 -43 -36 -67 -8 -24
-14 -36 -14 -27 -2 35 46 118 67 118 3 0 -5 -11 -17 -24z m521 -11 c3 -13 1
-22 -3 -19 -9 5 -13 44 -5 44 2 0 6 -11 8 -25z m-125 -202 c-9 -15 -26 -38
-39 -49 -33 -31 -99 -64 -111 -57 -6 4 7 13 28 20 49 17 101 66 118 112 7 20
13 27 15 18 2 -9 -3 -28 -11 -44z"/>
<path d="M3534 4583 c-9 -34 5 -65 25 -58 12 4 21 -2 29 -20 15 -33 31 -32 43
5 6 17 14 30 18 30 3 0 12 9 19 20 11 18 9 22 -15 32 -16 6 -47 11 -71 12 -36
1 -44 -2 -48 -21z"/>
<path d="M6906 4563 c-9 -10 -36 -72 -36 -84 0 -18 49 -9 60 11 7 13 21 20 40
20 36 0 38 15 8 41 -24 19 -59 25 -72 12z"/>
<path d="M6855 4530 c-3 -5 -1 -10 4 -10 6 0 11 5 11 10 0 6 -2 10 -4 10 -3 0
-8 -4 -11 -10z"/>
<path d="M6966 4432 c-3 -5 -7 -28 -10 -53 -8 -57 11 -84 51 -75 l28 6 -21
-18 -22 -18 22 -21 c24 -23 86 -21 86 3 0 7 7 17 15 22 13 7 14 14 6 35 -6 15
-15 27 -21 27 -5 0 -10 8 -10 18 0 9 -9 32 -20 50 -17 27 -25 32 -59 32 -22 0
-42 -4 -45 -8z"/>
<path d="M8630 4396 c0 -11 9 -16 31 -16 24 0 42 -11 75 -44 39 -39 60 -77 34
-61 -6 4 -10 -11 -10 -37 0 -25 -8 -56 -20 -75 -11 -18 -16 -33 -11 -33 5 0
21 15 36 33 21 25 24 27 15 7 -7 -14 -22 -36 -34 -50 l-21 -24 25 15 c69 44
87 120 46 201 -31 64 -60 86 -121 94 -38 6 -45 4 -45 -10z"/>
<path d="M8627 4343 c-11 -10 -8 -231 3 -238 14 -9 57 23 80 60 12 19 20 50
20 75 0 34 -6 48 -34 76 -33 33 -55 42 -69 27z"/>
<path d="M7107 4177 c-27 -22 -28 -23 -13 -52 9 -17 16 -36 16 -42 0 -18 9
-16 55 7 22 11 45 20 52 20 7 0 13 3 13 8 -1 12 -48 62 -60 62 -5 0 -10 5 -10
10 0 17 -23 11 -53 -13z"/>
<path d="M7225 4090 c-3 -5 -15 -10 -27 -10 -15 0 -19 -5 -15 -20 3 -11 -1
-23 -9 -28 -7 -4 -15 -19 -16 -32 -3 -21 2 -26 25 -28 15 -2 27 1 27 6 0 6 12
13 27 17 46 11 55 23 38 54 -18 36 -41 55 -50 41z"/>
<path d="M7140 4050 c-10 -6 -12 -12 -5 -19 7 -7 14 -4 23 9 13 21 6 25 -18
10z"/>
<path d="M7264 3977 c-4 -11 -18 -17 -40 -17 -21 0 -34 -5 -34 -12 1 -14 39
-63 44 -57 49 65 58 81 48 91 -8 8 -13 7 -18 -5z"/>
<path d="M8866 3902 c-21 -14 -33 -28 -27 -30 11 -4 91 43 91 53 0 12 -28 2
-64 -23z"/>
<path d="M3487 3893 c-4 -4 -24 -7 -45 -7 -36 -1 -37 -2 -49 -51 -14 -57 -4
-78 25 -52 23 21 32 21 47 0 11 -15 15 -13 43 18 36 39 37 42 17 59 -8 7 -15
19 -15 26 0 15 -12 18 -23 7z"/>
<path d="M3715 3890 c-3 -5 -3 -26 1 -45 4 -23 2 -41 -6 -51 -18 -21 1 -39 26
-26 11 6 27 13 37 16 26 8 21 49 -10 85 -29 33 -38 37 -48 21z"/>
<path d="M4408 3893 c-19 -3 -28 -10 -28 -22 0 -10 -3 -32 -6 -48 -8 -40 16
-63 66 -63 42 0 70 26 70 65 0 16 -61 79 -72 74 -2 -1 -15 -4 -30 -6z"/>
<path d="M5877 3893 c-4 -7 -36 -9 -79 -7 l-73 4 1 -31 c0 -18 8 -35 17 -41
10 -5 17 -20 17 -33 0 -29 24 -33 58 -9 15 10 22 24 20 41 -2 15 4 30 14 36
24 16 35 0 19 -25 -12 -20 -11 -24 15 -45 34 -27 47 -28 64 -8 7 8 19 15 27
15 7 0 13 6 12 13 -1 6 1 20 6 30 5 13 0 25 -20 43 -26 24 -28 24 -46 8 -18
-16 -20 -16 -33 1 -8 11 -15 14 -19 8z"/>
<path d="M3780 3879 c0 -5 5 -7 10 -4 6 3 10 8 10 11 0 2 -4 4 -10 4 -5 0 -10
-5 -10 -11z"/>
<path d="M4242 3872 c1 -10 -1 -22 -5 -29 -5 -7 0 -16 13 -23 12 -6 20 -21 20
-36 0 -23 3 -25 28 -19 41 10 58 30 42 50 -11 13 -10 19 5 35 24 27 16 33 -50
36 -47 2 -55 -1 -53 -14z"/>
<path d="M4515 3870 c14 -16 20 -17 27 -8 13 22 9 28 -19 28 -26 0 -26 0 -8
-20z"/>
<path d="M4590 3884 c-13 -4 -60 -65 -60 -79 0 -3 11 -5 24 -5 13 0 26 -7 30
-15 3 -8 12 -15 19 -15 8 0 20 7 27 15 7 8 21 15 31 15 24 0 24 3 -6 50 -24
39 -32 43 -65 34z"/>
<path d="M6008 3883 c7 -3 16 -2 19 1 4 3 -2 6 -13 5 -11 0 -14 -3 -6 -6z"/>
<path d="M6063 3882 c-22 -3 -40 -39 -41 -79 -1 -23 21 -32 33 -13 10 16 45
12 45 -5 0 -23 12 -17 43 20 28 34 28 35 10 59 -17 24 -35 27 -90 18z"/>
<path d="M6202 3872 c1 -10 -1 -22 -5 -29 -5 -7 0 -16 13 -23 12 -6 20 -21 20
-35 0 -29 10 -31 50 -10 33 17 36 25 18 43 -9 9 -7 16 7 32 24 27 16 33 -50
36 -47 2 -55 -1 -53 -14z"/>
<path d="M4670 3870 c0 -5 5 -10 10 -10 6 0 10 5 10 10 0 6 -4 10 -10 10 -5 0
-10 -4 -10 -10z"/>
<path d="M5020 3876 c0 -2 7 -9 15 -16 12 -10 15 -10 15 4 0 9 -7 16 -15 16
-8 0 -15 -2 -15 -4z"/>
<path d="M6903 3873 c9 -2 23 -2 30 0 6 3 -1 5 -18 5 -16 0 -22 -2 -12 -5z"/>
<path d="M9470 3603 c-53 -67 -188 -194 -255 -240 -120 -81 -249 -137 -400
-175 -125 -31 -417 -33 -544 -4 l-84 20 -31 -37 c-52 -61 -113 -138 -175 -222
-32 -44 -146 -165 -253 -270 -203 -200 -257 -246 -415 -357 -39 -28 -41 -47
-8 -96 14 -20 25 -42 25 -48 0 -6 15 -28 34 -50 18 -21 41 -55 51 -74 10 -19
33 -53 51 -76 19 -23 34 -45 34 -49 0 -4 65 -105 144 -225 91 -137 153 -221
166 -225 16 -5 36 3 73 29 84 58 129 95 144 116 8 12 34 30 58 41 23 11 62 40
85 65 23 24 65 62 93 83 82 62 359 347 433 446 36 50 83 109 103 133 20 23 54
63 77 90 56 65 291 422 316 480 11 26 29 58 38 72 50 71 230 458 230 493 0 7
11 36 25 66 14 30 24 55 23 56 -2 2 -19 -17 -38 -42z"/>
<path d="M8448 3593 c7 -3 16 -2 19 1 4 3 -2 6 -13 5 -11 0 -14 -3 -6 -6z"/>
<path d="M8633 3593 c9 -2 23 -2 30 0 6 3 -1 5 -18 5 -16 0 -22 -2 -12 -5z"/>
<path d="M1066 3383 c9 -21 25 -60 35 -86 28 -69 108 -228 131 -256 10 -14 27
-43 37 -65 10 -23 44 -82 77 -133 32 -50 72 -113 88 -140 17 -26 68 -100 115
-163 46 -63 105 -142 129 -175 64 -86 153 -183 353 -384 217 -216 291 -281
323 -281 17 0 38 18 77 66 64 78 121 147 190 229 28 33 75 92 105 130 30 39
74 94 97 124 23 30 66 80 95 112 28 33 52 68 52 80 0 13 -15 35 -37 53 -55 47
-371 365 -429 432 -28 32 -73 92 -99 132 -27 40 -55 72 -64 72 -9 0 -50 -9
-91 -20 -218 -57 -506 -50 -715 16 -148 48 -291 128 -414 233 l-72 63 17 -39z"/>
<path d="M7929 3208 c-29 -40 -56 -75 -59 -78 -3 -3 -23 -27 -45 -55 -116
-146 -394 -414 -550 -531 -143 -108 -362 -248 -470 -301 -22 -11 -81 -41 -130
-65 -50 -25 -168 -74 -263 -109 l-173 -64 6 -60 c4 -33 8 -61 9 -63 4 -3 87
24 210 67 106 38 474 215 539 260 25 17 48 31 51 31 5 0 210 137 265 178 265
196 577 515 749 765 l32 47 -56 25 c-31 14 -58 25 -59 25 -1 0 -26 -33 -56
-72z"/>
<path d="M5230 3250 c0 -11 5 -20 10 -20 6 0 10 9 10 20 0 11 -4 20 -10 20 -5
0 -10 -9 -10 -20z"/>
<path d="M2473 3192 c-29 -14 -53 -29 -53 -32 0 -8 145 -188 218 -270 129
-145 335 -341 426 -405 16 -11 43 -32 60 -46 46 -38 165 -122 216 -153 25 -15
54 -32 65 -39 11 -7 33 -21 50 -32 106 -71 483 -252 495 -238 7 9 32 115 28
118 -2 1 -28 12 -58 24 -71 30 -180 79 -202 91 -10 6 -26 14 -35 20 -95 52
-217 123 -245 142 -19 13 -68 45 -108 72 -41 26 -79 53 -86 60 -7 6 -34 27
-60 46 -192 144 -457 409 -608 608 -26 34 -48 62 -49 61 -1 0 -26 -12 -54 -27z"/>
<path d="M4915 2865 c-408 -76 -730 -347 -868 -732 -73 -202 -80 -476 -17
-680 91 -296 301 -546 573 -680 258 -128 565 -150 837 -62 617 201 933 893
679 1487 -141 331 -431 574 -779 653 -115 27 -319 33 -425 14z m279 -202 c-1
-15 -8 -48 -14 -72 -13 -52 -8 -61 21 -36 14 13 18 26 14 42 -4 19 0 25 20 33
34 13 45 13 45 -1 0 -6 -9 -13 -20 -16 -11 -3 -20 -9 -20 -15 0 -5 -10 -22
-22 -38 -38 -51 -118 -32 -118 28 0 14 -7 34 -17 44 -9 10 -13 21 -9 26 13 12
45 -36 39 -58 -6 -21 12 -50 31 -50 7 0 11 17 11 40 0 22 -3 40 -7 40 -15 0
-8 26 13 48 25 27 37 22 33 -15z m246 -36 c3 0 13 3 23 8 21 9 32 1 22 -16 -5
-7 -24 -10 -55 -6 -50 6 -70 -4 -70 -34 0 -9 7 -22 15 -29 13 -11 17 -8 26 19
6 17 17 31 24 31 11 0 10 -6 -2 -31 -11 -23 -12 -34 -4 -42 14 -14 15 -47 1
-47 -5 0 -10 -7 -10 -15 0 -8 -4 -15 -10 -15 -14 0 -32 40 -27 60 3 11 -3 26
-14 36 -41 37 -5 100 50 87 14 -3 28 -6 31 -6z m185 -117 c-3 -5 -21 -10 -38
-9 -31 1 -31 1 -7 9 36 11 52 11 45 0z m-89 -16 c-3 -9 -6 -21 -6 -27 0 -16
-20 14 -20 31 0 6 7 12 16 12 11 0 14 -5 10 -16z m65 -17 c-6 -8 -8 -17 -4
-20 3 -4 -2 -7 -12 -7 -17 0 -17 1 0 20 20 22 34 28 16 7z m73 -36 c19 -7 18
-8 -5 -15 -13 -4 -37 -8 -54 -7 -29 0 -29 0 -5 -8 l25 -7 -23 -8 c-19 -6 -21
-10 -11 -22 6 -8 19 -14 27 -14 12 0 13 -3 5 -11 -17 -17 -66 19 -59 44 4 17
1 19 -30 14 -23 -4 -34 -2 -34 6 0 7 20 13 52 14 28 1 56 7 62 13 11 11 23 12
50 1z m73 3 c-3 -3 -12 -4 -19 -1 -8 3 -5 6 6 6 11 1 17 -2 13 -5z m-652 -110
c0 -43 -4 -65 -13 -69 -15 -5 -52 15 -52 29 0 6 5 5 12 -2 23 -23 38 -14 31
21 -3 17 -10 36 -14 42 -13 13 -11 21 7 40 23 23 29 11 29 -61z m566 43 c-10
-9 -11 -8 -5 6 3 10 9 15 12 12 3 -3 0 -11 -7 -18z m-301 -8 c0 -6 -8 -13 -19
-16 -28 -7 -47 -48 -34 -76 15 -32 -9 -66 -32 -47 -9 8 -14 22 -12 31 3 10 -1
23 -9 30 -18 15 -18 53 1 69 9 7 27 10 45 6 17 -3 30 -1 30 4 0 6 7 10 15 10
8 0 15 -5 15 -11z m-335 -19 c25 -27 12 -37 -14 -11 -12 12 -21 23 -21 26 0
11 18 4 35 -15z m145 10 c0 -6 -7 -13 -15 -16 -8 -4 -15 -14 -15 -23 -1 -13
-2 -13 -12 3 -9 15 -7 22 8 33 21 16 34 17 34 3z m650 -20 c11 -7 6 -10 -21
-10 -43 0 -64 -20 -55 -54 4 -17 15 -26 36 -31 25 -6 29 -9 19 -21 -12 -15
-34 -20 -25 -6 8 13 -29 31 -45 21 -21 -13 -36 -10 -19 4 8 7 16 28 17 47 4
51 51 77 93 50z m-8 -64 c10 -19 8 -18 -16 3 -14 14 -26 29 -26 34 0 13 29
-12 42 -37z m78 18 c0 -8 -4 -14 -9 -14 -6 0 -9 9 -8 19 1 22 17 18 17 -5z
m-760 2 c0 -3 -4 -8 -10 -11 -5 -3 -10 -1 -10 4 0 6 5 11 10 11 6 0 10 -2 10
-4z m273 -51 c-7 -21 -13 -19 -13 6 0 11 4 18 10 14 5 -3 7 -12 3 -20z m87 21
c0 -11 -19 -15 -25 -6 -3 5 1 10 9 10 9 0 16 -2 16 -4z m360 -36 c0 -5 -4 -10
-10 -10 -5 0 -10 5 -10 10 0 6 5 10 10 10 6 0 10 -4 10 -10z m-395 -10 c3 -5
1 -10 -4 -10 -6 0 -11 5 -11 10 0 6 2 10 4 10 3 0 8 -4 11 -10z m-400 -10 c3
-5 1 -10 -4 -10 -6 0 -11 5 -11 10 0 6 2 10 4 10 3 0 8 -4 11 -10z m455 0 c21
-14 -2 -28 -38 -23 -22 3 -23 2 -8 -5 19 -8 19 -9 1 -15 -17 -7 -17 -8 1 -29
l19 -22 -25 16 c-14 9 -24 23 -24 32 1 11 -7 16 -27 16 -16 0 -29 5 -29 11 0
6 7 8 16 5 23 -9 99 5 82 15 -10 7 -10 9 2 9 8 0 22 -5 30 -10z m63 -7 c-7 -2
-21 -2 -30 0 -10 3 -4 5 12 5 17 0 24 -2 18 -5z m-343 -74 c0 -9 -12 -24 -26
-34 -24 -16 -26 -16 -40 2 -19 26 -17 37 13 74 l27 32 13 -29 c7 -16 12 -36
13 -45z m-241 34 c-10 -12 -11 -17 -2 -20 7 -2 10 -10 7 -17 -8 -20 27 -29 46
-11 19 17 30 19 30 6 0 -5 -9 -11 -21 -14 -16 -4 -19 -11 -14 -26 5 -17 0 -15
-29 11 -37 33 -44 56 -24 76 18 18 23 15 7 -5z m-267 -43 c10 0 18 -4 18 -10
0 -5 -13 -10 -30 -10 -16 0 -30 4 -30 8 0 5 -11 14 -25 20 -14 6 -25 19 -25
27 0 12 8 10 37 -10 21 -14 46 -25 55 -25z m-103 19 c12 -12 20 -23 17 -26 -6
-6 -55 29 -56 40 0 13 16 7 39 -14z m1327 1 c20 0 21 -2 11 -24 -7 -13 -14
-23 -18 -20 -3 2 -11 -8 -17 -21 -13 -28 -35 -31 -81 -12 l-30 13 17 34 c17
36 65 57 87 38 5 -4 19 -8 31 -8z m-1643 -39 c6 -6 11 -20 12 -33 2 -27 26
-44 50 -34 13 5 15 13 10 33 -6 27 -6 27 14 9 26 -23 26 -35 4 -52 -24 -18
-64 -17 -88 0 -15 11 -25 11 -39 4 -19 -10 -19 -11 4 -30 15 -12 20 -22 13
-29 -6 -6 -18 0 -33 16 -21 22 -22 29 -12 45 10 17 10 20 -3 20 -8 0 -15 -9
-15 -19 0 -11 -4 -22 -9 -25 -17 -11 -19 7 -4 52 8 26 16 52 18 59 4 13 61 1
78 -16z m1337 -1 c11 -8 9 -9 -10 -5 -15 3 -33 0 -45 -8 -17 -13 -18 -18 -7
-41 6 -14 18 -26 27 -26 8 0 15 -4 15 -10 0 -16 -27 -11 -34 6 -5 12 -14 14
-34 10 -22 -5 -24 -4 -9 4 9 6 17 18 17 26 0 45 43 69 80 44z m-767 -59 c-5
-21 24 -25 46 -7 12 9 12 7 2 -12 -9 -16 -19 -22 -32 -19 -16 4 -19 0 -19 -26
0 -17 -3 -28 -6 -24 -7 7 -12 109 -6 121 7 13 20 -15 15 -33z m751 23 c9 -24
2 -26 -12 -4 -7 11 -8 20 -3 20 5 0 12 -7 15 -16z m-1020 -15 c16 -15 0 -20
-27 -10 -22 9 -28 7 -37 -9 -14 -27 -15 -26 35 -40 43 -12 47 -11 70 10 25 23
25 23 25 2 0 -11 -4 -23 -10 -27 -5 -3 -7 -11 -5 -18 3 -7 -7 -17 -21 -24 -22
-10 -25 -10 -20 2 3 10 -8 22 -34 35 -49 25 -60 25 -60 1 0 -15 8 -21 32 -23
33 -3 50 -30 31 -49 -12 -12 -53 1 -53 16 0 8 -9 17 -20 20 -11 4 -20 15 -20
26 0 26 36 96 52 102 15 6 49 -2 62 -14z m204 -8 c3 -8 -1 -12 -9 -9 -7 2 -15
10 -17 17 -3 8 1 12 9 9 7 -2 15 -10 17 -17z m892 9 c0 -5 -4 -10 -10 -10 -5
0 -10 5 -10 10 0 6 5 10 10 10 6 0 10 -4 10 -10z m-292 -19 c21 -13 -5 -19
-53 -12 l-40 5 35 7 c19 3 37 7 40 8 3 0 11 -3 18 -8z m-828 -21 c0 -5 -4 -10
-10 -10 -5 0 -10 5 -10 10 0 6 5 10 10 10 6 0 10 -4 10 -10z m781 -9 c-12 -8
-12 -12 -2 -25 16 -19 1 -22 -17 -4 -19 19 -14 38 11 38 17 0 19 -2 8 -9z
m569 -29 c0 -4 -9 -13 -20 -20 -22 -13 -27 -3 -8 16 14 14 28 16 28 4z m68
-52 c7 0 12 -4 12 -10 0 -5 -16 -10 -35 -10 -19 0 -35 -5 -35 -11 0 -5 -5 -7
-10 -4 -17 10 -1 25 27 25 26 0 26 0 7 23 -19 22 -19 22 2 5 11 -10 26 -18 32
-18z m-297 -1 c19 -7 36 -13 38 -15 7 -6 -60 -64 -75 -64 -8 0 -24 9 -36 20
-20 18 -20 20 -4 45 19 28 28 30 77 14z m169 -1 c0 -7 17 -24 38 -38 48 -32
57 -36 47 -19 -15 26 4 4 31 -36 18 -28 21 -35 7 -22 -11 9 -27 17 -36 17 -9
0 -17 6 -17 13 0 8 -23 28 -50 46 -28 18 -48 37 -45 42 9 13 25 11 25 -3z
m-1673 -17 c3 -11 15 -22 26 -25 33 -9 67 -7 67 3 0 13 30 22 43 14 7 -4 15
-8 20 -9 4 -1 10 -2 14 -3 13 -2 -31 -41 -47 -41 -10 0 -25 -11 -34 -25 -11
-17 -26 -25 -44 -25 -37 0 -52 17 -52 56 0 17 -7 37 -15 44 -8 7 -12 16 -9 21
9 15 26 10 31 -10z m569 -48 c11 -10 14 -14 7 -9 -7 4 -19 6 -27 3 -15 -6 -26
12 -26 41 1 16 2 16 13 0 8 -9 22 -25 33 -35z m724 27 c-6 -11 -18 -20 -27
-20 -14 0 -14 3 3 19 25 26 37 26 24 1z m-276 -5 c10 -26 -15 -63 -60 -91 -24
-16 -44 -32 -44 -37 0 -4 12 -24 27 -44 36 -48 23 -69 -41 -66 -82 3 -98 38
-45 98 l32 36 -29 30 c-23 24 -26 33 -18 47 23 37 165 59 178 27z m716 -41 c0
-3 -12 -1 -26 2 -25 6 -26 5 -19 -26 4 -20 3 -30 -3 -26 -16 9 -24 69 -10 77
10 6 58 -16 58 -27z m-499 13 c-6 -8 -8 -17 -4 -20 7 -8 56 3 63 14 8 12 50
-1 50 -16 0 -15 -37 -27 -45 -15 -3 4 -21 4 -40 0 -20 -4 -38 -4 -41 1 -8 13
5 49 18 49 7 0 7 -4 -1 -13z m-640 -32 c13 9 11 -29 -3 -43 -7 -7 -17 -12 -22
-12 -6 0 -2 7 8 15 17 13 18 15 2 21 -9 3 -29 4 -44 1 -28 -5 -62 7 -62 23 0
15 33 16 73 3 21 -8 43 -11 48 -8z m-267 -39 c-4 -17 1 -25 18 -34 13 -6 17
-11 10 -11 -15 -1 -94 50 -88 56 2 3 14 0 25 -7 20 -10 21 -9 15 17 -7 25 -6
27 9 14 11 -8 15 -22 11 -35z m980 -2 c11 -30 6 -35 -18 -17 -16 12 -20 20
-12 25 17 11 23 10 30 -8z m536 6 c0 -5 -4 -10 -10 -10 -5 0 -10 5 -10 10 0 6
5 10 10 10 6 0 10 -4 10 -10z m-360 -15 c0 -8 -7 -15 -16 -15 -14 0 -14 3 -4
15 7 8 14 15 16 15 2 0 4 -7 4 -15z m-1081 -25 c-12 -32 -31 -41 -26 -12 3 22
16 42 27 42 5 0 4 -13 -1 -30z m131 15 c-14 -7 -27 -11 -30 -9 -6 7 22 24 40
23 9 0 5 -6 -10 -14z m912 -83 c-2 -7 -10 -11 -18 -8 -8 3 -14 -5 -17 -22 -3
-21 -4 -19 -6 11 -1 28 3 37 15 37 15 0 15 2 1 24 -9 13 -13 26 -10 30 9 8 41
-57 35 -72z m-1121 31 c13 -16 12 -17 -3 -4 -17 13 -22 21 -14 21 2 0 10 -8
17 -17z m1159 3 c0 -3 -4 -8 -10 -11 -5 -3 -10 -1 -10 4 0 6 5 11 10 11 6 0
10 -2 10 -4z m50 -6 c0 -5 -4 -10 -10 -10 -5 0 -10 5 -10 10 0 6 5 10 10 10 6
0 10 -4 10 -10z m-1150 -26 c0 -14 -3 -15 -17 -3 -10 7 -20 15 -22 16 -2 2 5
3 17 3 14 0 22 -6 22 -16z m1110 -29 c0 -28 -33 -12 -38 18 -3 16 0 17 17 7
12 -6 21 -17 21 -25z m-192 13 c11 -15 11 -98 0 -98 -5 0 -8 7 -8 15 0 23 -45
48 -67 37 -25 -14 -66 14 -43 28 8 5 25 10 37 10 12 0 25 5 28 10 9 14 41 12
53 -2z m-1251 -40 c-3 -8 -6 -5 -6 6 -1 11 2 17 5 13 3 -3 4 -12 1 -19z m65
-10 c2 -16 12 -25 33 -29 17 -4 22 -7 12 -8 -11 -1 -22 -14 -29 -31 -14 -41
-42 -55 -78 -40 -16 7 -31 18 -34 26 -4 11 0 11 19 -2 30 -20 74 -11 76 14 2
26 -2 47 -9 50 -4 1 -14 7 -22 12 -13 9 -13 11 0 20 22 15 28 12 32 -12z
m1680 -12 c5 -6 5 -23 2 -38 -3 -14 1 -35 8 -47 7 -11 9 -23 6 -27 -11 -10
-28 6 -28 25 0 12 -13 22 -39 31 -35 11 -42 11 -56 -4 -19 -18 -31 -20 -40 -6
-3 6 4 14 16 18 16 6 19 11 10 16 -7 5 -21 0 -32 -10 -17 -15 -19 -15 -19 -1
0 20 33 39 54 31 10 -4 18 1 22 11 14 35 73 36 96 1z m-1142 -1 c7 -8 10 -22
6 -30 -4 -11 1 -15 19 -15 14 0 25 -3 25 -7 0 -14 -114 -7 -118 6 -3 10 4 11
29 6 23 -4 29 -3 20 3 -11 8 -11 10 0 14 12 4 12 7 0 21 -7 10 -9 17 -3 17 5
0 15 -7 22 -15z m-650 1 c0 -2 -7 -9 -15 -16 -12 -10 -15 -10 -15 4 0 9 7 16
15 16 8 0 15 -2 15 -4z m75 -75 c-6 -5 -25 47 -25 67 1 9 7 -1 15 -23 8 -21
12 -41 10 -44z m360 50 c-3 -12 -14 -21 -24 -21 -10 0 -24 -6 -30 -14 -10 -11
-8 -15 6 -18 14 -3 11 -8 -15 -21 -18 -10 -38 -15 -44 -11 -7 5 -3 10 11 16
24 9 20 28 -7 28 -9 0 1 9 23 19 22 10 49 26 60 34 24 18 29 15 20 -12z m698
-73 c-6 -75 -12 -88 -25 -64 -8 15 -8 21 0 24 7 2 12 23 12 48 0 24 4 44 9 44
4 0 6 -24 4 -52z m67 22 c0 -5 -4 -10 -9 -10 -6 0 -13 5 -16 10 -3 6 1 10 9
10 9 0 16 -4 16 -10z m-90 -32 c0 -19 -2 -20 -10 -8 -8 13 -12 13 -32 1 -23
-14 -23 -14 -4 8 25 27 46 27 46 -1z m-420 -2 c0 -3 -4 -8 -10 -11 -5 -3 -10
-1 -10 4 0 6 5 11 10 11 6 0 10 -2 10 -4z m726 -27 c18 -19 18 -22 2 -50 -10
-16 -15 -36 -12 -44 4 -8 1 -15 -5 -15 -6 0 -11 8 -11 18 0 28 -44 65 -68 58
-11 -4 -23 -2 -27 4 -3 6 3 10 15 10 12 0 18 4 15 10 -4 6 -15 8 -26 5 -11 -4
-19 -2 -19 6 0 8 11 10 33 6 19 -3 40 -1 48 4 22 14 34 11 55 -12z m-1220 -34
c-4 -14 -12 -25 -20 -25 -7 0 -23 -9 -36 -20 -13 -12 -30 -18 -38 -15 -7 3
-21 5 -30 6 -9 0 3 8 28 18 28 11 45 23 44 33 -1 10 5 14 16 11 10 -3 20 2 24
13 10 25 19 9 12 -21z m619 14 c8 -24 -12 -69 -31 -69 -7 0 -14 -6 -17 -12 -7
-21 -16 -4 -22 40 -5 37 -3 44 17 52 36 14 46 12 53 -11z m-692 -9 c-3 -11 -7
-20 -9 -20 -2 0 -4 9 -4 20 0 11 4 20 9 20 5 0 7 -9 4 -20z m371 -17 c-13 -10
-15 -16 -7 -21 8 -5 7 -16 -4 -42 -8 -19 -17 -30 -20 -23 -2 7 0 21 6 32 15
28 14 30 -11 24 l-23 -5 23 17 c13 9 21 23 18 30 -3 8 3 15 12 17 24 5 28 -13
6 -29z m1218 20 c22 -20 23 -31 1 -55 -15 -17 -15 -18 1 -18 9 0 22 12 28 28
8 20 12 23 15 10 5 -20 -48 -128 -54 -110 -3 6 -13 12 -23 12 -25 0 -51 38
-44 66 4 17 0 24 -16 29 -26 8 -51 -11 -43 -33 4 -12 0 -11 -16 5 -27 28 -27
29 10 48 30 16 32 15 71 -10 32 -21 42 -24 54 -14 13 10 13 14 -1 29 -28 31
-15 42 17 13z m-732 -11 c18 -14 22 -25 16 -45 -3 -15 -11 -27 -17 -27 -8 0
-8 4 0 14 15 18 -2 56 -24 56 -8 0 -15 5 -15 10 0 15 15 12 40 -8z m-554 -7
c-11 -8 -29 -15 -40 -15 -36 0 7 25 49 29 6 0 1 -6 -9 -14z m499 -5 c-3 -5
-10 -10 -16 -10 -5 0 -9 5 -9 10 0 6 7 10 16 10 8 0 12 -4 9 -10z m321 -75
c27 -36 50 -38 41 -4 -3 10 -2 21 3 24 4 3 11 -7 15 -22 5 -20 2 -31 -11 -40
-10 -7 -15 -16 -11 -20 4 -3 16 2 27 12 11 10 20 13 20 7 0 -6 -18 -25 -40
-42 -39 -31 -42 -32 -55 -14 -22 29 -28 54 -16 68 6 8 9 21 5 30 -7 18 -44 22
-44 5 0 -5 -4 -7 -10 -4 -22 13 -10 35 19 35 22 0 37 -9 57 -35z m-1086 20 c0
-5 -75 -45 -85 -45 -3 0 -5 6 -5 13 0 8 17 18 38 24 47 13 52 14 52 8z m500
-15 c0 -5 -2 -10 -4 -10 -3 0 -8 5 -11 10 -3 6 -1 10 4 10 6 0 11 -4 11 -10z
m-365 -28 c5 -12 15 -22 20 -22 6 0 11 -16 11 -35 0 -23 -3 -32 -10 -25 -17
17 -36 11 -78 -21 -36 -29 -38 -33 -23 -48 15 -15 18 -13 43 17 29 35 52 41
72 17 9 -11 8 -19 -7 -39 -10 -14 -24 -26 -30 -26 -21 0 -15 31 7 37 23 6 27
23 6 23 -8 0 -24 -16 -36 -36 -16 -25 -28 -34 -43 -32 -25 4 -87 81 -87 109 0
21 42 69 60 69 19 0 10 -28 -15 -44 -29 -19 -30 -24 -10 -50 13 -17 16 -16 60
20 31 26 43 43 39 54 -4 8 -9 26 -12 39 -6 30 18 25 33 -7z m413 -2 c15 -1 15
-3 -2 -15 -18 -14 -18 -15 -2 -21 10 -4 21 -2 25 3 3 6 16 13 29 17 16 6 22 3
22 -8 0 -21 -30 -35 -63 -29 -32 6 -34 -5 -7 -40 17 -22 18 -26 4 -31 -9 -3
-31 -6 -50 -6 l-35 0 17 31 c15 30 15 32 -7 55 -18 19 -19 24 -6 24 9 0 19 -5
22 -10 10 -17 25 -1 26 28 0 15 3 21 6 15 2 -7 12 -13 21 -13z m-458 -10 c0
-5 -4 -10 -10 -10 -5 0 -10 5 -10 10 0 6 5 10 10 10 6 0 10 -4 10 -10z m836
-15 c10 -8 14 -15 7 -15 -6 0 -15 5 -19 11 -4 7 -9 8 -17 0 -7 -7 -6 -15 2
-25 7 -8 10 -20 7 -25 -4 -5 1 -14 11 -19 15 -9 15 -14 4 -38 -12 -27 -14 -27
-26 -11 -7 10 -13 35 -13 57 0 22 -4 45 -8 51 -3 6 0 15 7 20 19 12 22 11 45
-6z m-186 -70 c0 -11 -10 -35 -23 -53 l-24 -31 -21 40 c-12 23 -22 43 -22 45
0 2 12 14 27 28 25 24 28 24 45 9 10 -9 18 -26 18 -38z m625 45 c4 -6 -5 -10
-19 -10 -14 0 -26 -3 -26 -6 0 -10 56 -59 68 -60 7 -1 16 -2 20 -2 12 -3 14
-60 2 -67 -5 -3 -10 -2 -10 3 0 5 -9 12 -20 15 -12 3 -20 14 -20 26 0 12 -6
21 -14 21 -8 0 -18 9 -21 20 -3 11 -13 20 -21 20 -11 0 -13 -7 -8 -27 9 -37
13 -43 29 -43 10 0 11 -7 2 -35 -12 -42 -32 -47 -24 -6 3 15 2 32 -2 37 -5 5
-12 23 -16 41 -5 27 -2 37 19 58 26 26 50 32 61 15z m-379 -47 c-9 -9 -46 13
-46 27 0 17 2 17 24 -3 14 -12 24 -23 22 -24z m450 27 c13 0 24 -4 24 -10 0
-17 -67 -12 -74 6 -5 12 -2 15 10 10 8 -3 27 -6 40 -6z m-1376 -10 c0 -5 -4
-10 -10 -10 -5 0 -10 5 -10 10 0 6 5 10 10 10 6 0 10 -4 10 -10z m782 -42
c-28 -28 -40 -17 -15 16 11 15 22 21 28 15 6 -6 1 -17 -13 -31z m-497 -98 c-3
-4 9 -22 27 -39 24 -24 28 -31 14 -31 -9 0 -30 -10 -46 -22 -16 -12 -33 -18
-37 -14 -4 4 2 9 13 12 11 3 26 15 33 26 11 18 10 23 -12 42 -13 11 -27 32
-32 44 -7 23 -7 23 19 7 14 -10 24 -21 21 -25z m867 -8 c21 -18 23 -129 3
-112 -7 6 -20 8 -29 4 -12 -5 -15 -2 -10 10 4 12 0 16 -15 16 -30 0 -42 29
-28 71 9 31 14 35 36 31 14 -3 34 -11 43 -20z m-959 -34 c6 -20 7 -20 31 -5
30 20 39 21 34 6 -3 -10 -42 -28 -100 -46 -10 -3 -18 -1 -18 5 0 5 9 12 20 15
11 3 20 10 20 17 0 7 -8 9 -20 5 -11 -3 -20 -2 -20 3 0 29 46 30 53 0z m807 1
c0 -12 -16 -37 -35 -55 l-35 -33 45 -13 46 -13 -31 -37 c-36 -43 -60 -49 -60
-15 0 34 -14 49 -49 52 -44 3 -50 14 -13 21 38 8 40 19 10 51 -12 13 -16 23
-10 23 6 0 14 -5 18 -11 4 -8 9 -8 17 0 18 18 28 12 17 -10 -10 -18 -9 -20 12
-17 13 2 22 9 21 15 -2 7 2 24 7 38 12 31 40 34 40 4z m-545 -29 c3 -11 11
-20 16 -20 5 0 3 -10 -6 -23 -8 -13 -13 -33 -10 -46 3 -17 -1 -24 -15 -28 -11
-3 -20 -10 -20 -16 0 -6 -2 -8 -5 -6 -2 3 3 24 11 48 12 36 13 46 2 52 -11 7
-10 9 1 9 9 0 11 8 7 25 -8 30 10 34 19 5z m396 -16 l24 -27 -27 18 c-16 9
-28 21 -28 26 0 14 5 11 31 -17z m-205 -80 c-3 -55 -16 -71 -16 -20 0 31 -3
37 -16 32 -10 -4 -14 -2 -10 6 3 7 9 21 12 31 12 33 33 -1 30 -49z m-242 40
c3 -8 2 -12 -4 -9 -6 3 -10 10 -10 16 0 14 7 11 14 -7z m80 -53 c-10 -33 -21
-61 -26 -61 -4 0 -8 4 -8 10 0 13 44 120 48 116 1 -2 -5 -31 -14 -65z m206
-21 c17 -51 5 -65 -15 -17 -17 41 -19 57 -7 57 5 0 15 -18 22 -40z m-104 -24
c-8 -20 -20 -36 -25 -36 -15 0 -14 7 11 52 26 46 36 36 14 -16z"/>
<path d="M5395 2507 c-4 -10 -5 -21 -1 -24 10 -10 18 4 13 24 -4 17 -4 17 -12
0z"/>
<path d="M5263 2353 c-16 -6 -17 -39 -2 -49 13 -8 26 5 31 30 3 20 -9 28 -29
19z"/>
<path d="M5280 2255 c0 -8 5 -15 10 -15 6 0 10 7 10 15 0 8 -4 15 -10 15 -5 0
-10 -7 -10 -15z"/>
<path d="M5166 2131 c-4 -7 -5 -15 -2 -18 9 -9 19 4 14 18 -4 11 -6 11 -12 0z"/>
<path d="M5847 2123 c-11 -10 -8 -23 4 -23 6 0 17 7 25 15 14 13 13 15 -4 15
-10 0 -22 -3 -25 -7z"/>
<path d="M4240 2086 c0 -12 28 -25 53 -26 18 0 5 28 -15 34 -33 8 -38 8 -38
-8z"/>
<path d="M4555 1920 c3 -5 10 -10 16 -10 5 0 9 5 9 10 0 6 -7 10 -16 10 -8 0
-12 -4 -9 -10z"/>
<path d="M5630 1900 c0 -5 7 -10 15 -10 8 0 15 5 15 10 0 6 -7 10 -15 10 -8 0
-15 -4 -15 -10z"/>
<path d="M4305 1870 c-3 -5 3 -10 14 -10 12 0 21 5 21 10 0 6 -6 10 -14 10 -8
0 -18 -4 -21 -10z"/>
<path d="M4211 1849 c-1 -38 20 -52 47 -33 30 21 27 34 -7 34 -16 0 -32 6 -34
13 -3 6 -6 0 -6 -14z"/>
<path d="M5083 1845 c-39 -17 -39 -18 -11 -44 20 -19 22 -19 49 -4 30 18 43
39 33 54 -7 13 -34 11 -71 -6z"/>
<path d="M5060 1705 c-15 -29 -8 -40 31 -50 36 -9 43 7 22 44 -22 38 -35 39
-53 6z"/>
<path d="M5452 1647 c-9 -11 -7 -16 14 -25 34 -16 36 -15 32 10 -4 27 -30 35
-46 15z"/>
<path d="M5395 1630 c-3 -5 1 -10 10 -10 9 0 13 5 10 10 -3 6 -8 10 -10 10 -2
0 -7 -4 -10 -10z"/>
<path d="M5920 1593 l-24 -17 35 -12 c46 -17 49 -17 49 4 0 17 -18 42 -30 42
-3 0 -16 -8 -30 -17z"/>
<path d="M5556 1451 c-3 -5 5 -16 19 -25 22 -15 26 -15 31 -2 3 8 3 20 -1 26
-8 12 -42 13 -49 1z"/>
<path d="M4990 1425 c0 -8 5 -15 10 -15 6 0 10 7 10 15 0 8 -4 15 -10 15 -5 0
-10 -7 -10 -15z"/>
<path d="M5850 1348 c0 -18 48 -39 57 -26 7 12 -23 38 -44 38 -7 0 -13 -6 -13
-12z"/>
<path d="M5427 1294 c-7 -7 14 -44 25 -44 5 0 8 6 8 14 0 16 -24 38 -33 30z"/>
<path d="M4866 1214 c-4 -9 1 -14 14 -14 23 0 27 15 6 23 -8 3 -17 -1 -20 -9z"/>
<path d="M5070 1226 c0 -9 5 -16 10 -16 6 0 10 4 10 9 0 6 -4 13 -10 16 -5 3
-10 -1 -10 -9z"/>
<path d="M5530 1082 c0 -4 9 -15 20 -25 22 -19 25 -15 10 14 -11 19 -30 26
-30 11z"/>
<path d="M5517 1019 c7 -7 15 -10 18 -7 3 3 -2 9 -12 12 -14 6 -15 5 -6 -5z"/>
<path d="M5360 924 c0 -17 15 -25 34 -18 24 9 19 21 -9 26 -16 4 -25 1 -25 -8z"/>
<path d="M3021 2333 c-21 -21 -52 -56 -67 -78 -41 -57 -89 -117 -159 -195 -33
-36 -76 -88 -95 -114 -19 -26 -51 -67 -70 -89 -20 -23 -44 -55 -54 -71 -10
-15 -42 -55 -72 -87 -30 -32 -54 -68 -54 -79 0 -20 17 -32 245 -189 132 -90
222 -145 323 -197 45 -23 94 -51 110 -62 62 -45 278 -141 372 -167 14 -4 45
-18 69 -32 104 -60 620 -208 851 -244 41 -6 102 -17 135 -24 70 -16 83 -12 32
10 -57 24 -144 79 -230 146 -173 137 -307 340 -372 564 -27 96 -50 312 -41
397 7 67 1 73 -106 113 -34 13 -117 51 -183 86 -66 34 -138 72 -160 83 -23 12
-54 31 -70 42 -17 12 -40 25 -53 29 -13 4 -38 19 -55 34 -43 37 -232 161 -245
161 -6 0 -29 -17 -51 -37z"/>
<path d="M7090 2170 c-105 -64 -470 -245 -540 -270 -36 -12 -84 -31 -107 -41
-24 -11 -50 -19 -59 -19 -21 0 -117 -41 -126 -54 -4 -6 -8 -48 -8 -93 0 -276
-127 -562 -340 -767 -98 -94 -188 -157 -308 -214 -62 -30 -72 -38 -52 -40 48
-7 225 12 395 43 50 9 115 20 145 25 30 5 75 14 100 19 25 6 68 15 95 21 88
16 221 55 419 123 49 16 103 33 120 37 17 5 83 31 146 60 63 28 132 58 152 65
52 19 282 135 353 179 33 20 77 46 98 58 77 46 101 64 120 89 18 25 18 28 2
60 -10 18 -102 160 -206 315 -104 156 -189 286 -189 289 0 10 -61 97 -88 128
-14 15 -33 27 -41 26 -9 0 -45 -18 -81 -39z"/>
</g>
</svg>
